<svg width="1570" height="2071" viewBox="0 0 1570 2071" fill="none" xmlns="http://www.w3.org/2000/svg">
<path fill-rule="evenodd" clip-rule="evenodd" d="M1296.01 1830.11C1322.72 1828.85 1311.97 1783.18 1310.06 1766.41C1288.91 1705.15 1293.88 1638.32 1285.56 1574.11C1280.38 1514.17 1273.73 1454.42 1268.13 1394.52C1257.13 1272.95 1178.15 1025.45 1088.02 985.645C1076.66 936.948 1029.77 891.491 970.44 891.491C929.974 844.669 881.266 811.716 818.794 818.37C792.977 819.518 767.941 846.283 743.203 851.452C729.353 853.319 606.434 848.513 581.811 862.808C564.66 871.416 549.177 887.323 554.22 907.575C562.266 932.111 537.261 905.563 485.098 931.751C378.732 994.196 442.292 1077.73 445.109 1080.32C378.732 1170.6 320.716 1243.83 293.872 1354.18C276.475 1436.1 278.433 1520.66 263.857 1603C258.71 1631.55 250.815 1659.13 242.271 1686.85C233.011 1723.14 228.509 1813.58 223.405 1814.38C214.108 1816.64 228.778 1835.3 238.629 1835.32C511.754 1879.6 789.182 1837.15 1063.77 1830.21C1141.16 1827.58 1218.63 1826.98 1296.01 1830.11Z" fill="white"/>
<path fill-rule="evenodd" clip-rule="evenodd" d="M882.046 1088.29C882.174 1087.07 883.86 1087.07 883.99 1088.29L885.918 1106.49C888.264 1128.71 890.523 1150.89 892.16 1173.22C894.202 1201.06 895.567 1228.89 896.225 1256.8C898.519 1353.98 898.975 1451.21 899.169 1548.42C912.617 1547.51 926.067 1546.63 939.524 1545.78C948.654 1545.21 957.784 1544.66 966.916 1544.11L990.2 1542.73V1542.73L999.785 1542.16C1006.26 1541.76 1013.62 1540.17 1018.15 1545.78C1019.96 1548.02 1020.87 1550.94 1019.18 1553.61C1015.29 1559.76 1009.3 1559.54 1002.52 1559.81C996.133 1560.06 989.742 1560.31 983.352 1560.55C969.657 1561.07 955.964 1561.56 942.265 1561.93C927.889 1562.33 913.52 1562.65 899.149 1562.89C899.004 1603.92 897.267 1644.91 895.389 1685.9L894.539 1704.35C892.24 1754.23 889.768 1804.16 886.256 1853.98C885.967 1858.06 880.065 1858.05 879.779 1853.98C875.823 1797.88 873.214 1741.65 870.627 1685.47C868.75 1644.74 867.658 1604 867.138 1563.25C865.238 1563.26 863.339 1563.29 861.44 1563.3C807.503 1563.53 753.58 1563.75 699.643 1563.26C699.733 1563.36 699.821 1563.47 699.881 1563.61C703.784 1572.61 704.156 1584.11 704.06 1593.77C703.951 1604.86 702.424 1615.81 699.812 1626.59C690.453 1665.21 666.315 1699.8 638.823 1728.4L637.925 1729.33C631.441 1736.03 624.001 1742.76 620.02 1751.29C615.952 1760 614.541 1770.19 612.534 1779.55L612.299 1780.63L604.452 1816.06C601.959 1827.31 601.251 1843.72 592.138 1851.84C583.636 1859.42 572.372 1855.46 568.371 1845.71C565.246 1838.09 568.359 1829.73 570.209 1822.12L584.709 1762.55C587.091 1752.83 589.694 1743.05 594.836 1734.33C600.103 1725.39 607.824 1718.91 615.703 1712.28C630.623 1699.72 644.319 1685.35 655.902 1669.78C667.48 1654.22 677.376 1637.08 684.315 1619.04C687.789 1610.02 690.636 1600.64 692.6 1591.18C694.467 1582.21 694.451 1572.92 696.448 1564.05C696.585 1563.43 697.114 1563.01 697.721 1562.83C697.577 1562.43 697.797 1561.89 698.363 1561.86L742.475 1559.09C781.686 1556.62 820.895 1554.08 860.071 1551.18L866.993 1550.69V1550.69C866.456 1496.33 866.912 1441.95 867.916 1387.56C868.837 1337.68 868.856 1287.79 870.374 1237.92C871.128 1213.17 872.755 1188.48 874.565 1163.78C876.417 1138.52 879.382 1113.47 882.046 1088.29ZM467.859 1377.48C467.389 1374.71 470.954 1372.99 472.597 1375.53C491.38 1404.47 500.437 1435.9 504.254 1469.77C507.626 1499.66 506.633 1529.98 504.953 1559.95C503.162 1591.91 501.073 1623.87 498.959 1655.81L495.713 1704.8V1704.8L487.566 1827.61C486.983 1836.4 484.943 1844.39 477.205 1848.47C476.225 1849.27 475.203 1849.99 474.014 1850.61C469.833 1852.8 464.288 1851.69 461.871 1847.5L462.84 1848.12C463.684 1848.64 462.736 1847.92 459.995 1845.95L457.67 1843V1843C455.979 1840.52 454.9 1838.08 454.466 1835.13C453.792 1830.54 454.665 1825.51 454.972 1820.9L460.312 1740.37V1740.37C464.465 1677.76 469.315 1615.17 472.97 1552.53C474.673 1523.34 475.865 1494.12 475.058 1464.87C474.254 1435.79 472.738 1406.21 467.859 1377.48ZM630.351 838.378L631.394 838.207C668.702 832.149 709.27 833.282 743.367 850.862C743.649 851.007 743.52 851.465 743.204 851.451L732.229 851.023C697.486 849.693 662.85 848.906 628.689 856.885L625.192 857.708C612.889 860.642 600.042 864.232 590.16 872.175C580.715 879.767 576.012 891.478 571.49 902.26L570.886 903.683C566.297 914.332 560.49 924.431 550.434 931.09C537.408 939.713 521.742 938.656 506.807 939.827C480.509 941.893 459.009 960.523 448.312 983.32C441.834 997.124 439.071 1012.6 438.524 1027.7C438.243 1035.38 438.203 1043.37 439.251 1051C439.585 1053.44 442.673 1062.34 444.247 1062.12C447.745 1061.65 450.943 1063.43 452.033 1066.16C460.674 1058 469.563 1050.08 478.739 1042.44C501.61 1023.4 526.245 1006.15 552.189 991.317C571.989 979.999 592.875 968.786 614.502 960.309C612.789 960.274 611.098 960.606 609.463 961.437C608.747 961.803 608.036 960.925 608.601 960.344C615.413 953.338 623.573 952.341 631.799 954.21C633.554 953.664 635.31 953.136 637.074 952.634C637.951 952.385 638.388 953.567 637.672 954.023L635.652 955.285V955.285C644.625 958.223 653.436 963.999 660.411 968.557C680.448 981.646 698.084 997.648 715.962 1013.35L719.213 1016.2C734.949 1029.93 751.087 1043.28 768.966 1054.3C778.325 1060.06 788.156 1065.4 798.467 1069.37C807.311 1072.77 821.71 1074.92 825.852 1084.05C829.534 1088.42 827.996 1094 823.684 1096.95C816.412 1104.77 801.864 1099.72 793.199 1096.46C782.752 1092.53 772.631 1087.81 762.979 1082.27C744.24 1071.52 726.962 1058.15 710.867 1043.92C694.057 1029.07 678.201 1013.29 661.851 997.967C654.767 991.328 647.847 984.534 640.752 977.905L637.188 974.606C633.568 971.287 628.408 966.113 622.893 962.981C612.501 969.04 601.949 974.849 591.652 981.065C577.277 989.741 563.325 999.042 549.589 1008.65C523.145 1027.15 498.086 1047.86 474.822 1070.07C432.156 1110.79 395.805 1157.29 364.05 1206.52L361.638 1210.27C343.593 1238.46 326.529 1267.55 314.429 1298.69C301.116 1332.95 294.641 1368.99 291.124 1405.36C287.633 1441.47 286.455 1477.77 282.554 1513.85C278.553 1550.85 270.669 1587.04 261.703 1623.16L259.564 1631.72C251.451 1664.07 243.077 1696.42 238.906 1729.53C236.68 1747.21 235.34 1765.14 235.643 1782.97C235.947 1800.91 238.83 1818.44 241.156 1836.19C242.047 1842.99 235.203 1848.66 229.08 1849.56C222.037 1850.59 215.986 1846.2 213.797 1839.81C206.973 1819.87 205.733 1797.83 205.947 1776.91C206.163 1755.66 208.936 1734.56 212.839 1713.68C220.515 1672.62 232.361 1632.4 242.27 1591.83C251.003 1556.06 256.864 1520.24 260.024 1483.6C263.303 1445.59 265.267 1407.46 271.25 1369.72C277.155 1332.47 288.267 1296.88 305.024 1262.91C320.282 1231.98 339.302 1202.87 359.242 1174.66C383.457 1140.39 410.051 1107.79 439.779 1078.08C437.109 1077.97 434.367 1077.12 431.849 1075.59C424.145 1070.89 420.557 1061.7 419.455 1053.31C416.873 1033.69 417.496 1013.2 422.66 994.013C430.989 963.06 452.607 935.557 483.938 924.4C492.002 921.528 500.575 920.479 509.122 920.273C517.231 920.075 526.089 921.109 533.914 918.596C546.369 914.594 551.708 900.255 556.385 889.385L556.6 888.886C562.597 875.035 569.795 863.163 582.783 854.514C596.64 845.285 614.002 841.088 630.351 838.378V838.378ZM984.842 893.156C996.053 889.354 1010.07 892.804 1021.03 896.125C1033.25 899.827 1044.54 906.644 1054.21 914.74C1064.42 923.278 1072.86 933.82 1078.82 945.598L1079.39 946.733C1084.83 957.658 1091.03 972.656 1088.29 984.658C1088.21 984.998 1088.12 985.327 1088.02 985.644C1110.26 996.348 1130.8 1009.75 1148.69 1026.75C1169.52 1046.53 1187.16 1069.04 1202.09 1093.37C1261.37 1189.97 1271.8 1305.99 1278.8 1416.16L1280.55 1444.09C1284.35 1504.41 1288.8 1564.58 1300.36 1624.07L1301.2 1628.36C1313.55 1690.65 1331.24 1753.4 1329.45 1817.3C1328.91 1836.44 1299.97 1836.31 1299.13 1817.3C1295.97 1745.73 1278.88 1676.64 1267.31 1606.19C1246.96 1482.25 1257.16 1354.48 1228.31 1231.79C1217 1183.64 1199.46 1136.93 1174.42 1093.95C1162.06 1072.72 1147.9 1052.2 1131.33 1033.88C1117.07 1018.12 1102.24 1002.95 1085.58 989.702C1080.25 994.917 1069.61 992.26 1066.83 984.658C1064.92 979.434 1065.48 973.326 1064.25 967.854C1063.12 962.775 1061.55 957.74 1059.46 952.958C1055.29 943.427 1049.18 934.274 1042.12 926.56C1034.49 918.222 1025.73 911.295 1015.93 905.575C1006.05 899.816 995.254 898.096 984.842 893.888C984.491 893.746 984.458 893.287 984.842 893.156ZM1028.4 1555.52C1028.42 1555.01 1029.02 1554.78 1029.4 1555.11C1033.33 1558.65 1035.7 1563.72 1038.59 1568.07C1041.93 1573.09 1045.43 1578 1049.11 1582.78C1056.47 1592.37 1064.66 1601.41 1072.92 1610.26C1080.6 1618.49 1088.79 1626.38 1097.28 1633.81C1106.48 1641.86 1116.8 1649.05 1125.16 1657.97C1142.6 1676.58 1145.42 1702.12 1149.1 1726.11L1149.5 1728.7C1151.75 1742.93 1153.76 1757.21 1155.57 1771.5C1156.45 1778.45 1157.33 1785.41 1158.05 1792.38L1158.27 1794.59C1158.91 1801.41 1159.08 1808.33 1155.07 1814.29C1150.78 1820.67 1141.03 1822.91 1135.23 1816.79C1125.26 1806.28 1127.13 1787.62 1125.83 1774.11C1124.76 1762.93 1123.55 1751.77 1122.19 1740.62L1121.49 1735.05C1119.89 1722.37 1118.59 1709.44 1115.62 1696.98C1113.01 1686 1108.02 1677.72 1099.84 1669.77C1091.6 1661.77 1083.04 1654.29 1075.44 1645.67C1067.37 1636.52 1060.09 1626.72 1053.54 1616.48C1047.93 1607.73 1043.43 1598.2 1039.31 1588.69L1038.63 1587.1C1034.65 1577.82 1028.09 1565.74 1028.4 1555.52ZM1172.29 1156.93C1172.37 1155.63 1174.33 1155.61 1174.36 1156.93C1174.61 1168.06 1174.84 1179.19 1175.08 1190.33C1176.98 1280.03 1175.81 1369.95 1185.02 1459.35C1189.36 1501.5 1197.36 1543.03 1206.61 1584.39C1211.34 1605.55 1216.31 1626.66 1221.03 1647.83C1225.63 1668.45 1230.56 1689.18 1234.21 1710C1237.8 1730.46 1241.01 1751.08 1242.45 1771.81L1242.63 1774.51C1243.25 1784.55 1246.21 1799.32 1240.55 1808.21C1234.43 1817.85 1222.69 1818.03 1216.13 1808.82C1209.96 1800.19 1211.49 1784.82 1210.41 1774.51C1209.3 1764.01 1208.13 1753.5 1206.8 1743.02C1204.2 1722.59 1200.79 1702.2 1197.23 1681.9C1189.83 1639.63 1179.09 1597.9 1171.16 1555.7C1163.04 1512.45 1157.27 1468.9 1157.02 1424.87C1156.78 1380.47 1161.59 1336.16 1164.02 1291.85C1166.48 1246.86 1169.28 1201.89 1172.29 1156.93ZM738.767 877.913C741.231 869.803 749.927 864.733 758.41 867.01C766.184 869.099 772.602 878.322 769.563 886.213C766.246 894.824 760.45 902.166 755.563 909.992C751.049 917.224 744.465 922.918 739.867 930.021L744.934 935.361C747.469 938.024 750.011 940.672 752.582 943.274L761.419 952.222C768.302 959.177 775.228 966.094 782.35 972.807C803.29 992.551 824.563 1011.65 848.015 1028.56C853.353 1032.4 858.734 1036.23 864.265 1039.81L866.327 1041.15C870.122 1043.58 874.355 1045.96 878.939 1045.55C890.078 1044.55 900.142 1032.99 907.796 1025.79L908.197 1025.42C927.166 1007.77 944.73 988.486 960.086 967.746C963.495 963.138 966.797 958.452 970.012 953.71C962.587 945.233 964.36 928.685 963.951 918.404C963.662 911.176 963.64 903.945 963.6 896.711L963.58 895.252C963.49 890.57 963.274 886.079 966.382 882.226C966.563 882.003 966.938 882.01 967.169 882.127C971.426 884.308 972.738 887.96 974.555 892.056L974.745 892.481C976.956 897.397 979.074 902.359 981.216 907.304C983.459 912.481 985.515 917.733 987.599 922.972C988.57 925.409 989.496 927.856 990.401 930.316C990.952 931.887 991.523 933.45 992.109 935.01L992.247 935.13C993.021 935.772 993.678 936.45 994.243 937.15C996.619 938.312 998.507 940.429 999.392 943.539C1001.32 950.308 997.33 955.828 993.772 961.201C979.316 983.032 962.836 1003.84 944.518 1022.71C935.419 1032.08 925.848 1041.04 915.884 1049.53L914.142 1051C905.191 1058.52 895.472 1065.65 883.518 1067.41C869.528 1069.46 858.142 1062.66 847.433 1054.83L846.364 1054.04C836.212 1046.53 826.264 1038.75 816.626 1030.62C796.974 1014.04 778.28 996.228 761.688 976.692C745.549 957.69 729.596 936.442 719.648 913.578C719.041 912.185 720.636 910.727 721.885 911.89C726.745 916.412 731.42 921.179 736.04 926.008C736.169 918.9 734.827 911.732 735.573 904.58C736.484 895.887 736.221 886.283 738.767 877.913Z" fill="black"/>
<path fill-rule="evenodd" clip-rule="evenodd" d="M848.631 344.842C927.104 344.842 1028.4 392.96 1037.04 442.241C1047.22 500.318 1101.72 723.167 1089.42 794.631C1077.11 866.095 1010.78 917.54 904.639 917.54C798.5 917.54 719.279 860.961 701.089 841.534C682.9 822.108 649.19 752.748 649.19 752.748C649.19 752.748 592.361 745.361 592.092 700.079C591.822 654.797 629.04 638.322 629.04 638.322C629.04 638.322 615.77 459.62 649.19 413.094C682.61 366.569 770.157 344.842 848.631 344.842Z" fill="white"/>
<path fill-rule="evenodd" clip-rule="evenodd" d="M1032.23 434.29C1032.18 433.251 1033.72 433.129 1034.02 434.048C1050.95 488.721 1061.38 531.328 1072.37 587.38L1075.61 603.869C1084.28 647.847 1093.04 691.888 1100.44 736.079L1100.87 738.717C1104.58 761.592 1106.71 784.69 1102.07 807.612C1097.73 829.038 1085.87 848.68 1070.47 864.324C1040.72 894.56 999.367 913.445 957.769 921.888C936.735 926.157 915.037 927.805 893.601 926.319C882.917 925.588 872.249 924.116 861.787 921.942L860.631 921.701C850.086 919.475 840.726 916.821 835.126 907.121C833.717 904.677 834.284 900.489 837.241 899.233C842.825 896.881 846.93 895.896 853.023 896.571C858.841 897.219 864.523 898.936 870.272 900.003C881.259 902.043 892.426 903.068 903.607 903.313C925.568 903.785 947.584 901.097 968.577 894.694C1004.65 883.683 1041.3 862.622 1062.38 831.118C1087.17 794.058 1077.3 749.079 1070.73 708.151L1070.53 706.912C1063.88 665.078 1057.3 623.245 1050.92 581.384L1048.19 563.442C1041.04 516.037 1034.28 482.196 1032.23 434.29ZM666.006 318.258C684.009 306.659 706.38 303.809 727.526 303.969L730.174 304.002C757.25 304.405 893.542 307.576 939.174 308.551L950.03 308.775C964.398 309.04 993.376 309.316 1008.31 309.583L1009.17 309.599C1016.49 309.734 1023.82 309.788 1031.14 310.018L1032.22 310.055C1037.7 310.284 1042.27 311.087 1046.57 314.867C1048.75 316.784 1049.6 319.706 1049.4 322.489L1049.37 322.852L1060.25 323.784C1067.63 324.422 1071.54 330.897 1068.6 337.449L1068.46 337.766C1063.25 348.628 1059.27 380.24 1056.47 391.925C1055.01 398.072 1053.83 404.314 1053.14 410.596C1052.59 415.541 1052.54 420.498 1049.72 424.848C1043.7 434.129 1026.79 434.048 1026.48 420.903C1026.47 420.484 1026.48 420.079 1026.53 419.687C983.959 417.864 925.844 418.039 883.332 420.525C843.626 422.849 804.1 428.117 765.195 436.182C755.341 438.222 745.515 440.451 735.758 442.87C727.756 444.842 717.929 446.017 710.77 450.246C702.755 455.001 702.907 463.526 703.777 471.645C704.712 480.25 706.27 475.816 708.478 483.659L708.614 484.155C710.895 492.665 713.714 501.082 717.446 509.079C719.574 513.646 723.003 518.036 721.702 523.291C720.97 526.25 718.578 529.411 716.382 531.478C706.374 540.867 689.459 534.883 682.66 547.744C675.544 561.192 675.367 579.409 674.763 594.29L674.727 595.162C674.286 605.415 674.409 615.696 675.1 625.923C675.722 635.243 678.263 644.471 675.003 653.428C672.625 659.94 664.859 660.548 660.796 655.252C660.329 654.644 659.902 654.021 659.501 653.394L659.11 652.766L659.083 652.78C659.469 653.374 659.828 653.983 660.174 654.603C660.547 655.292 659.621 656.049 659.054 655.454C649.491 645.282 635.518 647.308 624.697 654.428C613.737 661.669 609.411 675.421 608.845 687.757C608.209 701.439 609.453 717.478 615.285 730.121C617.745 735.471 621.254 740.388 627.074 742.428C629.715 743.347 632.229 743.225 634.979 743.442C637.839 743.656 641.281 745.063 644.058 744.874C647.668 744.622 650.909 748.651 649.883 752.026L649.809 752.25C649.755 752.412 649.698 752.574 649.644 752.723C649.781 752.844 649.919 752.993 650.016 753.209C660.519 774.189 674.92 792.859 690.841 810.178C698.817 818.838 707.661 826.795 716.907 834.158C721.467 837.792 726.277 841.427 731.349 844.357C733.035 845.315 734.582 845.965 736.478 846.493C737.361 846.735 738.37 846.856 739.227 847.14L740.117 847.438C740.178 847.457 740.236 847.475 740.291 847.491C742.834 847.775 744.976 849.423 745.819 852.004C748.017 858.731 744.022 864.675 737.195 866.526C729.798 868.548 722.827 864.998 716.964 860.922L716.575 860.65C704.62 852.235 693.605 842.79 684.069 831.766C665.205 810.003 653.387 784.808 647.917 756.938C646.561 759.788 644.736 762.274 641.572 764.003C636.652 766.705 630.778 766.705 625.388 765.8C614.539 764.003 605.293 757.532 599.115 748.778C592.701 739.699 590.312 728.676 588.861 717.936C587.423 707.181 586.718 696.388 588.156 685.608C590.216 670.126 596.863 654.82 609.785 646.336C600.11 625.734 598.41 602.632 599.101 580.072C599.944 552.296 604.851 524.21 608.624 496.691L619.35 418.458V418.458L619.789 415.304C622.377 396.9 625.528 378.398 632.575 361.056C639.526 343.967 650.085 328.512 666.006 318.258ZM620.869 688.363C638.587 679.96 657.728 687.701 667.264 704.007C675.556 718.184 650.903 727.555 646.79 712.941L646.672 712.491C643.963 701.427 632.933 691.862 621.422 690.376C620.468 690.242 619.762 688.891 620.869 688.363Z" fill="black"/>
<path fill-rule="evenodd" clip-rule="evenodd" d="M985.03 781.94C985.989 781.686 986.834 782.945 986.039 783.634C982.786 786.456 980.719 791.714 978.345 795.298C976.087 798.708 973.91 802.083 971.924 805.652C969.698 809.652 967.547 813.637 965.814 817.87L965.471 818.724V818.724C965.99 819.931 966.396 821.123 966.695 821.904L966.782 822.125C969.742 829.515 963.528 837.727 956.52 839.793C944.532 843.326 934.247 833.703 933.961 822.259C933.736 813.256 939.978 805.235 946.322 799.284C951.871 794.078 958.084 789.647 965.035 786.401C968.101 784.97 971.287 783.773 974.616 783.079C978.022 782.37 981.695 782.821 985.03 781.94ZM962.436 814.566C963.315 814.971 964.066 815.961 964.697 817.117C964.382 816.137 963.731 815.161 962.436 814.566ZM969.937 689.477C980.373 695.678 996.275 710.137 985.048 725.51C971.832 739.065 952.805 723.523 943.429 716.495C934.735 711.047 924.967 725.057 933.033 731.418C1000.79 780.451 1028.28 691.099 975.215 682.186C969.372 681.204 967.202 687.559 969.937 689.477ZM884.149 629.934L885.993 629.783C893.991 629.094 902.089 628.044 909.977 629.813C920.573 632.19 919.796 647.259 909.977 650.03C901.322 652.471 891.732 651.414 882.799 651.498C881.393 651.512 879.99 651.547 878.586 651.57C878.31 654.835 877.214 657.65 875.536 660.463C874.334 662.481 872.8 664.398 871.29 666.191C867.703 670.452 859.24 670.356 855.62 666.191C852.941 663.108 850.809 659.562 850.774 655.389C850.766 654.32 850.898 653.185 851.16 652.07L846.284 652.153C834.35 652.331 822.324 652.252 810.606 650.398C806.438 651.241 803.027 643.89 808.781 641.689C824.421 635.71 841.894 633.949 858.491 632.154C867.02 631.23 875.596 630.594 884.149 629.934ZM1017.39 623.755L1017.82 623.714C1028.17 622.678 1039.58 620.884 1049.95 621.916C1065.43 623.455 1065.41 643.916 1049.95 645.447C1044.27 646.009 1038.3 645.736 1032.33 645.198C1035.38 651.518 1031.77 659.066 1024.42 660.03C1017.6 660.926 1010.53 654.444 1012.77 647.492L1012.87 647.185C1013.31 645.979 1013.7 644.631 1014.17 643.3L1011.7 643.096C1004.31 642.459 994.07 641.156 991.353 635.459C990.534 633.742 990.723 632.148 991.985 630.681C997.159 624.661 1009.91 624.463 1017.39 623.755V623.755ZM907.334 576.907C914.825 574.247 922.61 580.472 923.581 587.488C924.7 595.572 918.735 600.895 911.174 601.861L910.795 601.905C894.105 603.702 877.541 606.987 860.83 608.845C853.24 609.687 845.593 610.242 837.952 610.441L832.491 610.561C825.8 610.727 818.623 610.876 812.446 608.623L812.469 608.583V608.583C810.829 608.118 810.074 605.805 811.9 604.541C818.477 599.995 827.343 598.277 834.999 596.116C842.697 593.943 850.452 591.939 858.227 590.057C874.555 586.11 891.515 582.525 907.334 576.907ZM976.417 578.797C978.402 568.569 993.224 567.472 998.668 574.914C1002.19 576.095 1007.35 577.327 1010.54 578.254C1016.11 579.868 1021.69 581.473 1027.27 583.028C1038.84 586.249 1050.13 590.331 1061.5 594.137C1062.67 594.53 1062.35 595.984 1061.22 596.128C1045.35 598.148 1029.74 599.088 1013.77 598.44L1010.5 598.296C996.429 597.76 972.54 598.782 976.417 578.797Z" fill="black"/>
<path fill-rule="evenodd" clip-rule="evenodd" d="M971.457 742.112C956.087 735.345 928.488 741.25 918.468 743.598C895.174 749.059 871.74 760.859 864.498 779.347C856.337 800.183 872.62 806.742 875.015 805.67C891.141 806.781 910.345 796.872 927.243 794.314C940.961 792.22 955.432 790.392 968.285 783.268C977.669 788.313 998.864 791.041 1015.97 795.453C1030.54 799.209 1036.85 807.354 1050.36 805.622C1066.54 803.547 1059.92 770.269 1041.88 756.788C1022.13 742.034 988.74 736.051 971.457 742.112ZM1001.89 884.401C988.443 887.606 987.54 858.797 986.033 848.619C984.856 840.667 978.219 820.161 961.391 821.046C944.564 821.931 938.238 839.111 939.092 849.797C939.646 856.726 946.178 891.826 925.327 896.266C912.033 896.221 896.654 895.344 882.676 892.824C866.224 889.182 844.831 876.43 839.18 901.543C837.146 910.581 909.617 937.434 941.776 939.863C974.39 946.323 1012.55 936.389 1035.77 912.001C1041.05 906.453 1055.93 883.424 1056.99 877.781C1059.22 865.927 1054.06 858.298 1039.05 862.477C1028.45 868.01 1010.54 882.34 1001.89 884.401Z" fill="black"/>
<path fill-rule="evenodd" clip-rule="evenodd" d="M1093.63 697.706C1076.85 714.653 1048.83 719.517 1026.51 710.427C969.189 687.017 997.246 613.998 1041.45 594.389C1046.98 593.044 1054.35 589.851 1061.08 589.127C1061.69 588.836 1063.01 589.68 1064.61 588.881C1113.36 594.201 1124.46 668.169 1093.63 697.706M908.738 702.044C889.919 726.443 854.931 733.971 826.345 722.628C769.872 700.889 789.902 636.139 828.54 610.755C910.159 580.776 943.863 657.056 908.738 702.044M786.317 647.981C786.265 647.957 786.212 647.945 786.158 647.921C786.457 647.792 786.755 647.664 787.052 647.533C786.956 647.78 786.851 648.025 786.757 648.272C786.61 648.173 786.482 648.058 786.317 647.981M1132.48 621.607C1127.87 621.616 1121.21 622.357 1117.4 625.481C1107.99 594.473 1073.27 565.775 1043.08 586.701C1019.3 594.176 1001.66 610.753 991.628 632.793C973.547 622.28 945.115 626.769 929.436 640.671C919.167 607.504 893.895 595.89 863.815 594.176C830.983 588.919 798.259 620.087 788.049 645.09C779.559 644.146 766.873 641.505 758.886 646.626C707.05 633.338 616.423 626.012 605.885 633.395C598.375 636.212 594.253 653.539 604.743 654.474C613.884 653.205 603.676 641.778 612.89 640.531C661.985 637.556 709.644 647.221 758.219 651.276C762.556 656.979 776.568 658.886 784.044 656.595C772.27 699.009 797.686 727.866 835.768 736.509C894.736 749.749 946.038 698.187 930.619 644.554C948.482 635.867 969.029 636.24 988.488 640.816C955.971 757.794 1148.71 752.546 1118.6 629.49C1138.64 639.23 1142.99 623.572 1132.48 621.607" fill="black"/>
</svg>
