<svg width="2117" height="2467" viewBox="0 0 2117 2467" fill="none" xmlns="http://www.w3.org/2000/svg">
<path fill-rule="evenodd" clip-rule="evenodd" d="M2013.42 1484.31C2031.14 1475.71 2048.44 1466.36 2065.46 1456.63C2077.45 1449.96 2066.84 1433.15 2054.54 1439.22C2048.25 1442.33 2041.99 1445.47 2035.7 1448.55C2040.65 1444.59 2045.24 1440.27 2049.35 1435.57L2049.06 1435.31C2064.92 1422.09 2044.55 1397.16 2026.53 1408.02C2010.63 1418.74 1994.58 1429.68 1976.34 1436.74C1938.54 1451.65 1896.85 1454.12 1856.28 1454.55C1841.43 1453.51 1827.25 1455.9 1812.84 1458.57C1818.49 1437.49 1832.62 1421.57 1840.12 1401.16C1845.65 1380.55 1813.67 1366.51 1802.34 1386.32C1799.56 1391.18 1796.91 1396.11 1794.31 1401.05C1769.82 1421.78 1728.91 1419.96 1704.21 1442.21C1690.13 1453.83 1683.25 1469.6 1680.53 1485.42C1678.68 1496.17 1681.55 1506.94 1674.57 1516.46C1640.8 1560.89 1587.46 1631.11 1560.36 1680.01C1541.18 1563.82 1489.96 1420.11 1437.04 1313.88C1419.55 1279.9 1399.53 1246.7 1373.25 1217.9C1376.23 1208.3 1365.71 1191.25 1359.03 1196.5C1338.45 1173.11 1302.07 1167.05 1272.82 1155.43C1233.34 1139.72 1200.58 1107.07 1184.47 1069.96C1163.78 999.293 1112.85 990.317 1042.21 993.44C974.6 993.361 924.58 1020.26 909.829 1084.29C879.861 1132.89 809.104 1124.85 758.199 1137.71C720.892 1145.64 684.686 1157.9 650.278 1173.46C612 1139.68 474.908 1281.45 462.447 1317.94C469.783 1319.26 477.074 1320.85 484.299 1322.79C490.734 1324.52 488.032 1333.57 481.542 1332.12C473.466 1330.31 465.338 1329.07 457.172 1328.21C456.922 1328.94 456.705 1329.66 456.542 1330.37C455.625 1330.31 454.71 1330.24 453.793 1330.18C455.826 1331.17 457.782 1332.31 459.688 1333.78C464.296 1337.34 458.298 1344.21 453.401 1341.38C448.787 1338.16 442.745 1338.67 437.212 1337.59C436.883 1348.18 396.281 1336.34 389.974 1332.83C361.943 1329.57 333.107 1333.07 306.939 1320.49C272.121 1313.67 237.041 1306.13 202.614 1297.44C193.5 1300.74 184.934 1312.57 192.173 1321.25C196.245 1325.2 191.011 1331.65 185.884 1328.84C168.688 1319.43 155.39 1304.73 144.116 1288.89C138.809 1283.91 129.388 1284.98 122.258 1282.92C121.305 1284.51 120.743 1286.29 120.752 1288.11C90.5071 1292.74 112.082 1323.47 127.287 1333.05C119.221 1337.93 118.915 1347.5 119.621 1355.49C117.912 1358.34 117.341 1361.86 118.828 1365.05C124.516 1377.25 136.816 1387.51 146.169 1397.39C156.495 1408.3 165.703 1419.27 178.268 1428.12C226.161 1462.08 283.958 1481.07 343.25 1488.5C364.303 1491.51 394.586 1496.11 407.621 1512.67C404.423 1532.33 398.55 1551.18 393.223 1570.35C385.773 1595.79 386.279 1622.42 386.181 1648.36C385.139 1647.58 383.14 1647.74 382.842 1649.23C381.109 1659.98 379.82 1670.97 372.796 1680.01C366.638 1696.81 362.54 1714.72 360.238 1732.37C351.015 1816.05 348.813 1902.19 369.608 1984.56C377.632 2015.12 390.683 2044.16 408.465 2070.9C413.767 2078.88 422.291 2081.21 429.945 2079.65C455.563 2092.03 487.835 2096 515.447 2092.85C609.582 2068.06 576.782 2127.76 708.768 2109.48C936.588 2082.48 1166.83 2135.54 1394.16 2104.39C1399.76 2144.62 1473.06 2133.08 1498.52 2116.07C1574.86 2063.27 1612.76 1896.11 1651.08 1811.31C1677.41 1744.47 1721.51 1626.09 1779.26 1581.23C1796.58 1568.63 1817.51 1562 1838.45 1556.65C1916.62 1537.91 1995.08 1520.19 2073.4 1501.97C2086.68 1498.93 2084.29 1477.85 2070.09 1479.2C2051.24 1481 2032.33 1482.62 2013.42 1484.31Z" fill="white"/>
<path fill-rule="evenodd" clip-rule="evenodd" d="M273.378 1471.78C268.085 1471.17 262.896 1469.42 257.741 1468.03C249.871 1465.89 242.156 1463.4 234.563 1460.55C218.891 1454.71 203.687 1447.8 189.433 1439.35C166.41 1425.69 146.068 1408.18 130.726 1387.1L129.672 1385.63C120.913 1373.22 104.756 1345.66 122.872 1336.23C111.196 1327.16 100.16 1310.85 100.783 1298.27C101.665 1280.47 125.121 1280.71 137.246 1288.26C145.186 1293.2 151.136 1300.12 157.104 1306.93C163.711 1314.49 170.769 1321.7 178.103 1328.64C180.049 1330.47 182.014 1332.27 184.014 1334.04L186.025 1335.8C185.714 1335.11 185.437 1334.4 185.195 1333.67C181.147 1321.94 185.973 1306.67 198.583 1301.3C206.3 1298 214.314 1300.01 221.792 1302.81L222.938 1303.24C233.005 1307.12 243.194 1310.55 253.676 1313.3C296.401 1324.52 340.994 1326.38 384.774 1331.98C401.639 1334.16 418.815 1336.89 435.594 1340.91C441.994 1315.63 457.683 1291.4 474.703 1271.46C556.209 1176.08 690.629 1144.55 813.597 1124.15C824.805 1122.3 834.095 1136.1 840.616 1132.84C852.984 1126.66 863.864 1117.9 873.412 1108.39C893.771 1088.1 908.215 1064.23 925.184 1041.62C933.573 1030.46 952.877 1040.45 945.093 1052.44L941.28 1058.3C925.579 1082.3 908.193 1107.03 885.676 1125.64C873.706 1135.53 860.422 1143.33 845.235 1148.2C833.732 1151.89 817.593 1155 805 1151.42L803.489 1149.38C803.989 1150.06 804.493 1150.74 805 1151.42C837.865 1195.73 879.102 1233.22 922.554 1268.61C966.413 1304.31 1013.73 1336.28 1061.33 1367.54L1065.29 1370.14C1142.84 1317.52 1208.34 1248.88 1254.3 1170.46C1244.67 1169.38 1235.14 1163.64 1226.9 1159.36C1216.99 1154.18 1207.67 1148 1200.4 1139.76C1184.58 1121.81 1186.64 1098.69 1183.78 1076.92C1183.61 1075.56 1185.53 1075.23 1186.41 1075.9C1194.99 1082.53 1198 1093.39 1201.58 1102.78C1205.52 1113.09 1209.99 1121.59 1219.03 1128.85C1227.46 1135.61 1237.73 1140.58 1247.71 1145C1252.86 1147.27 1278.41 1153.11 1281.32 1157.94C1325.47 1148.3 1368.47 1164.96 1401.18 1193.06C1432.78 1220.2 1455.98 1255.5 1476.46 1290.34C1498.3 1327.51 1516.21 1366.26 1531.64 1406.09C1547.27 1446.52 1559.26 1487.83 1565.85 1530.37C1571.41 1566.25 1574.82 1602.68 1577.03 1638.96L1577.3 1643.49C1609.96 1595.81 1643.43 1548.62 1677.59 1501.86C1669.82 1482.56 1678.42 1462.87 1692.97 1447.96C1709.09 1431.47 1731.39 1423.81 1752.71 1414.89L1755.52 1413.71C1765.8 1409.35 1776.04 1404.55 1784.92 1398.01C1793.47 1391.7 1799.75 1383.01 1808.74 1377.2C1821.82 1368.74 1845.55 1370.54 1846.16 1389.03C1846.47 1399.19 1841.78 1410.32 1837.49 1419.45C1832.63 1429.76 1826.07 1439.11 1818.29 1447.71C1817.93 1448.11 1817.54 1448.42 1817.14 1448.67L1816.84 1448.85C1827.6 1450.51 1838.44 1451.84 1849.49 1452.31C1871.79 1453.26 1894.33 1451.73 1916.16 1447.35C1938.51 1442.88 1960.16 1435.61 1980.26 1425.47C1997.44 1416.81 2013.35 1405.61 2032.87 1402.97C2034.66 1402.71 2036.48 1402.55 2038.35 1402.45C2041.46 1402.29 2044.58 1405.7 2043.35 1408.57C2042.67 1410.15 2041.96 1411.71 2041.19 1413.28C2034.44 1427.11 2024.09 1440.52 2011.19 1450.7L2010.19 1451.47C2014.74 1450.01 2019.22 1448.37 2023.63 1446.52C2049.56 1435.65 2073.08 1419.24 2100.88 1412.64C2102.19 1412.32 2103.53 1412.03 2104.86 1411.76C2113.46 1410.03 2117.99 1418.72 2112.94 1424.68C2112.12 1425.64 2111.31 1426.59 2110.46 1427.54C2098.06 1441.86 2084.38 1455.16 2069.29 1467.1C2064.12 1471.18 2058.79 1475.14 2053.36 1478.93C2051.07 1480.53 2048.77 1482.1 2046.45 1483.64L2045.3 1484.4C2048.02 1482.61 2050.7 1480.79 2053.36 1478.93C2070.38 1474.13 2087.16 1468.45 2103.58 1462.16C2110.1 1459.66 2115.17 1465.81 2115.86 1470.86C2118.18 1487.79 2097.97 1500.04 2084.83 1508.18C2071.65 1516.36 2057.13 1522.57 2042.28 1527.56C2013.71 1537.16 1983.7 1541.52 1953.74 1545.43L1939.19 1547.32C1881.6 1554.81 1821.44 1563.77 1780.11 1605.46C1756.95 1628.83 1741.28 1657.86 1726.94 1686.42C1712.62 1714.96 1700.04 1744.25 1688.11 1773.7C1675.74 1804.17 1664.96 1835.22 1653.51 1866C1643 1894.27 1630.43 1922.17 1617.99 1949.8L1616.03 1954.16C1589.62 2012.86 1558.07 2068.16 1514.1 2117.18C1506.85 2125.27 1495.14 2113.78 1501.83 2105.77C1547.83 2050.6 1579.83 1985.51 1606.24 1920.57C1618.26 1891.03 1628.33 1860.77 1639.88 1831.06L1646.76 1813.42C1655.94 1789.89 1665.2 1766.4 1674.86 1743.06C1687.09 1713.52 1700.53 1684.35 1715.91 1656.12L1717.54 1653.15C1732.59 1625.92 1750.48 1599.08 1775.1 1578.47C1819.41 1541.37 1878.37 1532.46 1935.38 1525.41L1953.32 1523.21C1977.42 1520.24 2001.59 1516.95 2025.03 1510.95C2038.56 1507.51 2051.77 1503.1 2064.19 1497.01C2069.14 1494.6 2073.96 1491.95 2078.63 1489.05C2065.32 1492.69 2051.81 1495.66 2038.05 1498C2031.33 1499.14 2024.67 1499.99 2018.02 1500.59C2000.92 1502.16 1983.95 1502.1 1966.43 1501.25C1964.94 1501.16 1964.45 1498.99 1966.05 1498.72C1978.25 1496.7 1990.47 1494.18 2002.63 1491.44L2006.28 1490.61C2006.35 1488.73 2007.14 1486.73 2008.81 1484.83C2014.86 1477.98 2026.36 1474.47 2034.34 1469.62C2042.69 1464.55 2050.79 1459.08 2058.5 1453.23C2065.56 1447.87 2072.34 1442.2 2078.86 1436.28L2080.82 1434.49C2080.17 1435.09 2079.51 1435.69 2078.86 1436.28C2061.25 1443.85 2044.56 1453.55 2026.17 1459.54C2011.56 1464.31 1996.23 1467.53 1980.77 1468.67L1979.81 1468.75L1978.85 1468.8C1962.71 1469.88 1946.46 1469.45 1930.57 1472.7C1928.79 1473.07 1928.23 1470.85 1929.82 1470.22C1943.71 1464.84 1958.16 1462.77 1972.76 1460.26C1973.07 1459.2 1973.86 1458.25 1975.25 1457.64L1978.98 1455.98C1990.11 1451.01 2000.47 1445.99 2009.72 1437.92C2017.89 1430.79 2024.68 1422.46 2029.79 1413.22C2009.36 1417.39 1991.42 1431.79 1972.84 1439.88C1952.61 1448.72 1931.19 1455.06 1909.19 1458.67L1906.68 1459.07C1865.56 1465.45 1816.12 1464.63 1779.28 1444.74C1778.11 1444.1 1778.96 1442.64 1780.17 1442.81C1790.61 1444.41 1800.96 1446.29 1811.3 1447.96C1809.28 1446.24 1808.38 1443.15 1810.71 1440.67C1820 1430.77 1827.35 1419.45 1832.05 1407.06L1832.95 1404.64C1835.11 1398.89 1838.76 1389.97 1835.03 1384.78C1831.47 1379.84 1823.08 1380.52 1818.06 1382.61C1807.63 1386.99 1800.7 1397.92 1791.91 1404.51C1782.33 1411.72 1771.43 1417.07 1760.27 1421.85L1757.92 1422.84C1738.62 1430.92 1718 1437.72 1702.83 1451.97C1694.66 1459.63 1687.64 1469.21 1685.29 1479.94C1684.22 1484.86 1684.22 1489.93 1685.63 1494.81C1686.76 1498.62 1689.11 1500.97 1687.76 1504.85C1686 1509.86 1679.75 1515.84 1676.54 1520.3C1672.8 1525.45 1669.08 1530.62 1665.36 1535.78C1657.94 1546.11 1650.56 1556.48 1643.17 1566.82C1628.4 1587.55 1613.78 1608.37 1599.29 1629.26C1594.57 1636.06 1589.87 1642.87 1585.18 1649.69L1578.17 1659.92L1574.46 1665.31L1568.13 1674.56C1568.36 1675.42 1568.34 1676.32 1568.05 1677.11C1566.97 1679.96 1564.95 1681.92 1562.44 1683.33L1561.99 1683.58C1525.08 1737.86 1488.75 1792.49 1452.07 1846.9C1450.11 1863.51 1448.28 1880.13 1446.69 1896.75C1443.07 1934.38 1440.6 1972.1 1439.8 2009.87C1439.42 2028.15 1441 2046.54 1441.84 2064.81C1442.26 2073.53 1442.83 2082.23 1443.57 2090.94L1444.11 2097.11C1444.84 2105.59 1445.26 2114 1441.98 2122.08C1439.08 2129.18 1430.22 2130.77 1424.98 2125.37C1356.6 2122.81 1288.17 2120.86 1219.74 2119.65C1097.26 2117.47 974.724 2117.8 852.222 2120.01C790.695 2121.12 729.15 2122.68 667.64 2124.61C637.335 2125.54 607.013 2126.86 576.69 2127.25C560.353 2127.46 534.641 2121.92 533.323 2104.82L533.291 2104.3C531.249 2104.82 529.139 2105.23 526.977 2105.54C526.014 2105.68 525.09 2105.64 524.236 2105.45L523.811 2105.35C499.459 2112.25 468.654 2102.4 445.513 2096.66L443.603 2096.19C421.514 2090.83 403.767 2083.17 389.289 2066.15C363.948 2036.33 355.299 1996.29 350.802 1959.39C346.581 1924.66 346.339 1889.29 351.476 1854.63C348.449 1826.38 351.407 1797.24 354.849 1769.16C356.544 1755.27 358.534 1741.4 360.921 1727.59C362.253 1719.88 364 1712.25 365.781 1704.64C366.493 1701.6 367.085 1698.32 367.987 1695.16L368.393 1693.81C365.626 1694.15 362.598 1693.58 359.675 1692.09C352.722 1688.53 350.698 1681.34 350.577 1674.45C350.196 1653.69 352.86 1632.34 355.212 1611.71C357.582 1591.11 360.834 1570.43 365.089 1550.09L366.19 1544.84C369.415 1529.63 373.104 1513.92 379.602 1499.62C355.196 1495.76 330.858 1491.66 307.178 1484.67C295.623 1481.24 284.241 1476.98 273.378 1471.78ZM1547.27 1687.82C1546.89 1687.9 1546.53 1688 1546.16 1688.1C1536.41 1690.64 1526.55 1692.8 1516.72 1695.11C1499.74 1699.09 1483.13 1703.53 1467.34 1710.43C1464.03 1749.28 1459.13 1788 1454.47 1826.75L1453.54 1834.49C1460.7 1822.13 1468.03 1809.87 1475.69 1797.75C1499.03 1760.82 1522.9 1724.18 1547.27 1687.82ZM374.344 1691.67C374.396 1696.29 373.358 1701.09 372.804 1705.53C371.905 1712.74 371.178 1719.98 370.262 1727.19C368.393 1741.67 366.802 1756.17 365.643 1770.72C364.899 1780 364.415 1789.32 363.983 1798.64C373.79 1764.54 386.781 1731.18 399.131 1697.77C397.067 1697.57 394.957 1697.1 392.78 1696.56L389.115 1695.64C386.954 1695.12 379.944 1693.52 374.344 1691.67ZM1578.17 1659.92L1578.24 1661.45C1578.49 1666.87 1575 1669.93 1570.76 1670.72C1573.22 1667.11 1575.69 1663.51 1578.17 1659.92ZM455.902 1402.89C466.228 1403.74 476.347 1405.79 485.999 1409.33L486.931 1409.66C494.07 1412.23 504.508 1415.45 506.843 1422.54C507.5 1424.55 505.736 1426.21 503.712 1426.37C495.963 1426.95 486.83 1419.22 479.651 1416.61C471.66 1413.72 463.288 1411.56 454.812 1410.42C435.767 1407.83 415.91 1409.79 397.99 1416.25C396.934 1416.63 396.277 1415.07 397.228 1414.6C415.287 1405.46 435.369 1401.2 455.902 1402.89ZM237.071 1448.91C235.876 1447.93 234.683 1446.9 233.507 1445.87C224.233 1437.71 216.02 1428.18 209.94 1417.72L208.339 1414.88C203.387 1405.96 197.305 1393.25 208.944 1386.83C215.898 1382.98 224.27 1383.95 232.019 1386.28C232.521 1386.42 233.022 1386.59 233.524 1386.75C236.983 1387.87 240.322 1389.23 243.297 1390.51C256.218 1396.03 267.617 1404.06 279.553 1411.14C292.485 1418.82 305.255 1423.73 320.18 1426.6L321.586 1426.87C335.597 1429.44 350.784 1431.1 360.557 1441.82C363.013 1444.52 360.765 1449.59 356.527 1448.25C329.508 1439.77 300.915 1437.91 276.111 1423.99C265.836 1418.22 256.115 1411.61 245.615 1406.15C240.045 1403.26 234.295 1400.72 228.166 1398.98L224.818 1398.06C222.857 1397.53 220.516 1397.01 218.942 1397.53C215.946 1398.5 216.902 1399.99 217.829 1402.59L217.922 1402.86C225.204 1423.81 245.961 1441.35 265.196 1452.95C269.607 1455.62 274.121 1458.07 278.722 1460.34C309.867 1475.78 344.716 1482.97 378.943 1491.5C378.943 1491.5 398.733 1496.64 405.289 1498.58C412.589 1498.01 420.909 1500.41 426.409 1503.27C431.754 1506.06 436.061 1509.79 439.313 1514.19C439.313 1514.19 442.444 1516.62 443.015 1520.38C444.658 1523.87 445.765 1527.64 446.319 1531.57C446.63 1533.87 446.007 1535.64 444.831 1536.89C448.369 1587.41 433.702 1637.64 417.165 1685.66L415.527 1690.39L414.474 1693.39C396.64 1744.29 376.177 1794.82 367.044 1847.9C360.938 1883.35 361.128 1920.04 365.608 1955.65L365.924 1958.11C370.339 1991.78 378.832 2029.55 401.847 2056.65C413.586 2070.48 427.494 2076.63 445.276 2081.08L446.25 2081.32C462.336 2085.26 478.942 2090.85 495.53 2092.54C510.925 2094.1 523.829 2088.77 537.684 2083.78L537.701 2083.77C566.882 2059.74 580.132 2024.76 589.923 1989.45C615.298 1898.07 612.15 1803.22 597.759 1710.52C590.251 1662.08 580.046 1614.06 569.875 1566.05C564.789 1542.06 559.306 1518.11 554.757 1494.04L552.055 1479.87C550.564 1472 549.122 1464.12 547.89 1456.2C546.229 1445.57 545.728 1435.11 545.157 1424.4C531.18 1402.86 510.89 1385.11 487.383 1372.38C470.552 1363.25 452.736 1356.93 434.349 1352.34C381.781 1339.16 324.475 1340.09 271.579 1329.96C253.809 1326.55 236.941 1321.5 220.082 1315.45L217.783 1314.62C210.051 1311.82 202.164 1310.26 198.324 1318.74C195.591 1324.77 197.217 1331.05 201.316 1336.12C211.366 1348.54 231.57 1354.3 246.774 1358.78C255.924 1361.48 265.265 1363.62 274.71 1365.22C284.154 1366.81 293.633 1367.21 302.697 1370.32C306.191 1371.51 306.883 1376.67 302.697 1377.59C291.211 1380.09 279.657 1377.94 268.24 1375.87C255.7 1373.57 243.349 1370.3 231.345 1366.16C229.131 1365.41 226.839 1364.6 224.505 1363.75L222.748 1363.11C224.564 1364.33 226.38 1365.54 228.214 1366.75C228.698 1367.07 228.404 1367.92 227.764 1367.71C199.538 1357.91 173.855 1340.24 153.959 1319.32L152.97 1318.27C145.964 1310.81 129.998 1288.21 116.541 1294.5C103.904 1300.41 125.446 1323.15 133.632 1332.46L134.583 1333.55C143.889 1333.77 152.901 1339.16 160.442 1343.51C173.537 1351.05 187.219 1357.56 201.161 1363.64C228.871 1375.76 258.295 1384.3 285.711 1397.03C286.074 1397.21 285.798 1397.64 285.452 1397.59C267.998 1395 250.736 1390.87 233.87 1385.73L233.118 1385.51L232.366 1385.28C221.831 1382.06 211.436 1378.43 201.213 1374.55C189.848 1370.24 178.743 1365.39 167.967 1359.91C158.211 1354.95 147.383 1346.02 136.07 1344.7C134.859 1344.55 133.787 1344.54 132.853 1344.62C119.863 1345.63 130.604 1365.65 134.237 1371.64C140.17 1381.47 147.331 1390.55 155.547 1398.83C172.205 1415.67 192.391 1429.01 214.238 1439.39C221.693 1442.93 229.321 1446.05 237.071 1448.91Z" fill="black"/>
<path fill-rule="evenodd" clip-rule="evenodd" d="M1062.14 410.781C1160.36 410.781 1287.14 468.1 1297.95 526.805C1310.69 595.987 1378.91 861.447 1363.5 946.576C1348.1 1031.7 1265.08 1092.99 1132.24 1092.99C999.397 1092.99 900.244 1025.59 877.478 1002.45C854.712 979.306 812.521 896.685 812.521 896.685C812.521 896.685 741.395 887.884 741.058 833.944C740.72 780.003 787.301 760.378 787.301 760.378C787.301 760.378 770.693 547.506 812.521 492.084C854.35 436.663 963.923 410.781 1062.14 410.781Z" fill="white"/>
<path fill-rule="evenodd" clip-rule="evenodd" d="M1291.94 517.331C1291.87 516.094 1293.8 515.949 1294.17 517.043C1315.36 582.17 1328.42 632.924 1342.17 699.694L1346.23 719.336C1357.08 771.722 1368.04 824.185 1377.3 876.826L1377.84 879.969C1382.48 907.217 1385.15 934.731 1379.34 962.036C1373.91 987.559 1359.07 1010.96 1339.8 1029.59C1302.56 1065.61 1250.8 1088.11 1198.74 1098.16C1172.41 1103.25 1145.25 1105.21 1118.42 1103.44C1105.05 1102.57 1091.7 1100.82 1078.61 1098.23L1077.16 1097.94C1063.96 1095.29 1052.25 1092.13 1045.24 1080.57C1043.47 1077.66 1044.18 1072.67 1047.89 1071.18C1054.87 1068.37 1060.01 1067.2 1067.64 1068.01C1074.92 1068.78 1082.03 1070.82 1089.23 1072.09C1102.98 1074.52 1116.95 1075.75 1130.95 1076.04C1158.43 1076.6 1185.99 1073.4 1212.26 1065.77C1257.41 1052.65 1303.28 1027.57 1329.66 990.038C1360.69 945.891 1348.34 892.312 1340.11 843.558L1339.87 842.082C1331.54 792.249 1323.31 742.416 1315.32 692.551L1311.91 671.178C1302.96 614.709 1294.5 574.397 1291.94 517.331ZM833.569 379.113C856.101 365.296 884.101 361.901 910.566 362.091L913.88 362.13C947.768 362.611 1118.35 366.388 1175.46 367.55L1189.05 367.816C1207.03 368.132 1243.3 368.461 1261.99 368.779L1263.07 368.798C1272.23 368.958 1281.4 369.023 1290.57 369.296L1291.91 369.341C1298.78 369.614 1304.5 370.57 1309.87 375.074C1312.61 377.356 1313.68 380.837 1313.43 384.153L1313.39 384.584L1327 385.695C1336.24 386.455 1341.13 394.168 1337.46 401.973L1337.27 402.351C1330.75 415.289 1325.77 452.946 1322.28 466.866C1320.44 474.188 1318.97 481.623 1318.11 489.106C1317.42 494.998 1317.35 500.902 1313.82 506.084C1306.29 517.139 1285.12 517.043 1284.74 501.385C1284.72 500.886 1284.74 500.403 1284.79 499.936C1231.52 497.764 1158.78 497.973 1105.57 500.934C1055.88 503.702 1006.41 509.978 957.713 519.585C945.38 522.015 933.082 524.671 920.869 527.551C910.854 529.901 898.556 531.301 889.596 536.338C879.563 542.003 879.753 552.157 880.843 561.829C882.013 572.08 883.963 566.798 886.727 576.14L886.897 576.73C889.751 586.869 893.28 596.894 897.95 606.421C900.614 611.861 904.906 617.091 903.278 623.351C902.361 626.875 899.367 630.641 896.618 633.103C884.093 644.287 862.923 637.158 854.412 652.478C845.506 668.498 845.285 690.199 844.529 707.925L844.484 708.964C843.932 721.178 844.086 733.424 844.951 745.606C845.729 756.709 848.91 767.702 844.829 778.371C841.853 786.128 832.133 786.852 827.048 780.544C826.464 779.819 825.929 779.077 825.428 778.33L824.937 777.582L824.904 777.599C825.387 778.307 825.837 779.032 826.269 779.771C826.736 780.592 825.577 781.493 824.868 780.785C812.898 768.667 795.41 771.081 781.866 779.562C768.149 788.188 762.735 804.57 762.026 819.264C761.23 835.563 762.787 854.668 770.087 869.729C773.166 876.102 777.558 881.959 784.842 884.389C788.147 885.484 791.294 885.339 794.736 885.596C798.315 885.852 802.623 887.527 806.099 887.302C810.617 887.003 814.673 891.801 813.39 895.822L813.296 896.089C813.229 896.282 813.158 896.475 813.09 896.652C813.261 896.797 813.434 896.974 813.556 897.231C826.702 922.223 844.726 944.463 864.652 965.094C874.635 975.409 885.704 984.888 897.276 993.658C902.984 997.987 909.003 1002.32 915.352 1005.81C917.462 1006.95 919.397 1007.72 921.771 1008.35C922.876 1008.64 924.139 1008.79 925.211 1009.12L926.325 1009.48C926.401 1009.5 926.474 1009.52 926.543 1009.54C929.726 1009.88 932.407 1011.84 933.462 1014.92C936.212 1022.93 931.213 1030.01 922.668 1032.22C913.411 1034.62 904.686 1030.4 897.348 1025.54L896.86 1025.22C881.898 1015.19 868.112 1003.94 856.177 990.81C832.566 964.885 817.774 934.872 810.928 901.673C809.231 905.068 806.948 908.029 802.987 910.089C796.829 913.308 789.477 913.308 782.731 912.23C769.153 910.089 757.581 902.381 749.849 891.953C741.821 881.139 738.83 868.007 737.014 855.213C735.215 842.402 734.333 829.546 736.132 816.704C738.711 798.262 747.029 780.029 763.202 769.922C751.094 745.381 748.967 717.863 749.831 690.988C750.887 657.902 757.027 624.445 761.749 591.664L775.174 498.472V498.472L775.723 494.715C778.963 472.791 782.907 450.752 791.726 430.094C800.427 409.737 813.642 391.327 833.569 379.113ZM777.076 819.986C799.251 809.977 823.208 819.198 835.144 838.622C845.521 855.509 814.666 866.671 809.518 849.264L809.37 848.728C805.98 835.548 792.175 824.154 777.768 822.384C776.574 822.225 775.69 820.615 777.076 819.986Z" fill="black"/>
<path fill-rule="evenodd" clip-rule="evenodd" d="M1263.97 920.377L1265.4 920.308C1275.14 919.793 1284.6 918.468 1293.3 923.546C1304.86 930.293 1304.91 945.639 1293.3 952.374C1284.16 957.677 1274.22 955.935 1263.97 955.688C1255.53 955.483 1247.08 955.342 1238.63 955.258C1221.75 955.094 1204.88 955.055 1188 955.134C1172.77 955.204 1157.53 955.038 1142.3 954.697L1135.77 954.54C1120.16 954.141 1103.8 954.643 1088.42 951.814L1087.76 951.708L1087.78 951.677V951.677C1085.11 950.844 1083.7 946.89 1086.89 945.515C1102.15 938.932 1119.6 936.172 1136 933.04C1152.6 929.873 1169.48 927.585 1186.31 925.792C1203.12 924.006 1220.06 922.744 1236.95 921.742C1245.95 921.204 1254.96 920.762 1263.97 920.377ZM1212.89 718.059L1214 717.365C1226.22 709.855 1243.79 702.623 1257.88 708.324C1258.68 708.646 1259.35 709.066 1259.93 709.549C1263.39 709.612 1266.87 709.879 1270.36 710.368C1297.94 714.235 1323.42 731.073 1335.88 754.254C1350.04 780.603 1343.32 808.369 1318.26 826.29C1305.95 835.094 1291.48 841.433 1275.9 842.862C1270.81 843.329 1265.41 843.42 1260.52 841.985C1262.84 846.568 1264.6 851.359 1265.5 856.412C1268.61 873.712 1261.23 887.976 1243.91 895.446C1228.69 902.014 1207.62 904.531 1192.57 896.241C1179.85 889.238 1184.02 866.051 1200.76 868.129C1212.06 869.531 1222.25 873.04 1233.42 868.557C1242.52 864.906 1237 852.58 1234.25 846.097C1229.67 835.261 1222.91 825.06 1217.43 814.539L1216.42 812.563C1212.98 805.702 1208.7 798.454 1205.43 791.061C1203.62 799.745 1200.39 808.266 1196.58 816.155C1187.54 834.874 1170.04 846.327 1149.2 851.69C1127.76 857.202 1102.6 858.481 1080.51 857.804C1058.03 857.117 1034.37 851.637 1017.92 836.481C987.796 808.717 996.448 760.139 1028.15 736.932C1048.66 721.919 1077.55 711.631 1104.08 714.296C1117.37 711.514 1132.24 713.094 1145.54 715.898C1163.53 719.691 1180.71 727.809 1192.47 740.74C1193.34 738.706 1194.35 736.757 1195.5 734.897C1194.98 734.674 1194.66 733.96 1195.17 733.532C1196.11 732.748 1197.08 731.997 1198.04 731.243C1201.87 726.245 1206.82 721.892 1212.89 718.059ZM994.905 848.187C993.822 846.758 995.939 844.904 997.458 845.813C1009.9 853.279 1022.93 860.065 1037.2 864.02C1051.14 867.884 1065.63 867.485 1079.63 870.787C1084.89 872.028 1084.05 878.393 1079.63 879.952C1064.22 885.385 1046.83 880.826 1032.19 875.06C1017.34 869.212 1004.27 860.514 994.905 848.187ZM1078.42 728.931L1078.79 728.514V728.514L1077.89 728.794V728.794C1060.45 734.256 1046.09 743.262 1034.42 756.408C1014.52 778.81 1014.29 814.431 1044.03 829.571C1060.07 837.732 1079 838.116 1096.81 837.252L1100.41 837.073C1116.04 836.271 1131.99 835.081 1147.07 831.148C1163.53 826.858 1174.96 817.608 1181.25 802.701L1181.77 801.444C1188.05 786.101 1191.32 769.038 1179.66 755.151C1159.92 731.628 1114.29 726.929 1086.09 738.173C1079.33 740.865 1073.91 734.295 1078.42 728.931ZM1259.41 722.619C1258.94 723.044 1258.44 723.432 1257.88 723.746C1252.22 726.905 1245.85 726.937 1239.58 728.385C1233.8 729.72 1228.14 731.348 1222.82 733.867C1214.46 737.817 1205.84 742.544 1197.94 747.698C1199.63 750.215 1201.15 752.872 1202.45 755.685C1206.03 763.459 1207.24 771.646 1206.87 779.866C1212.37 784.298 1216.97 789.809 1221.85 794.79L1226.15 799.189C1231.16 804.333 1236.14 809.535 1240.8 814.935C1243.57 818.144 1246.39 821.43 1249.09 824.812C1249.45 823.803 1249.95 822.815 1250.65 821.877C1253.28 818.343 1257.35 816.559 1262 817.58C1266.06 818.478 1268.78 820.191 1273.03 820.216C1278.24 820.249 1283.26 819.206 1288.18 817.711C1297.86 814.772 1307.35 809.492 1314.44 802.653C1330.42 787.212 1321.99 765.453 1309.52 750.745C1296.89 735.844 1278.75 726.169 1259.41 722.619ZM1117.06 759.707C1122.19 758.329 1129.83 760.502 1132.08 765.394L1133.7 768.955C1133.65 768.849 1133.61 768.767 1133.57 768.67C1134.14 769.932 1134.69 771.15 1135.13 772.444L1136.64 773.538V773.538C1137.94 774.876 1139.14 776.287 1140.24 777.776C1142.84 781.911 1143.59 787.208 1142.26 791.842C1140.06 799.501 1132.51 804.417 1124.12 804.464C1099.57 804.599 1093.56 766.022 1117.06 759.707ZM1265.15 752.775C1276.49 752.304 1284.04 761.623 1284.95 771.196C1285.46 776.645 1284.28 782.603 1282.6 787.814C1280.1 795.588 1272.13 800.459 1263.54 799.387C1256.71 798.533 1250.67 793.699 1248.97 787.485C1246.72 782.361 1245.46 776.724 1245.35 771.196C1245.14 760.875 1254.58 753.214 1265.15 752.775ZM1115.48 666.632C1126.98 664.907 1137.97 670.108 1139.64 681.609C1141.32 693.211 1132.14 700.877 1120.62 702.017C1098.91 704.163 1076.74 704.673 1054.92 705.56C1045.82 705.928 1036.7 706.085 1027.59 706.16L1023.04 706.191C1014.57 706.238 1003.52 707.794 995.864 703.914C995.366 703.663 995.385 703.092 995.702 702.731C1001.08 696.568 1012.21 693.942 1020.16 691.228L1020.83 690.995C1030.9 687.462 1041.07 684.155 1051.39 681.292L1056.63 679.846C1075.89 674.567 1095.72 669.6 1115.48 666.632ZM1188.49 660.99C1195.6 658.503 1202.62 660.053 1207.45 664.258C1223.62 668.446 1240.26 671.655 1256.53 675.321L1260.96 676.334C1281.36 681.07 1303.78 684.72 1322.75 693.402C1324.77 694.324 1323.5 696.715 1321.73 696.916C1300.59 699.304 1277.83 695.508 1256.81 693.223C1235.29 690.882 1213.65 687.019 1192.06 685.507C1176.56 684.42 1174.31 665.951 1188.49 660.99Z" fill="black"/>
<path fill-rule="evenodd" clip-rule="evenodd" d="M1215.87 884.013C1196.63 875.952 1162.09 882.986 1149.55 885.783C1120.39 892.287 1091.06 906.344 1082 928.367C1071.78 953.187 1092.16 961 1095.16 959.724C1115.35 961.046 1139.38 949.243 1160.53 946.196C1177.7 943.702 1195.81 941.524 1211.9 933.037C1223.64 939.048 1250.17 942.297 1271.58 947.553C1289.81 952.027 1297.71 961.729 1314.62 959.666C1334.88 957.194 1326.58 917.553 1304 901.494C1279.29 883.919 1237.5 876.792 1215.87 884.013ZM1253.96 1053.51C1237.13 1057.33 1236 1023.01 1234.11 1010.88C1232.64 1001.41 1224.33 976.985 1203.27 978.039C1182.21 979.093 1174.29 999.559 1175.36 1012.29C1176.05 1020.54 1184.23 1062.35 1158.13 1067.64C1141.49 1067.59 1122.24 1066.54 1104.75 1063.54C1084.16 1059.2 1057.38 1044.01 1050.31 1073.93C1047.77 1084.69 1138.47 1116.68 1178.72 1119.58C1219.54 1127.27 1267.3 1115.44 1296.36 1086.39C1302.97 1079.78 1321.59 1052.34 1322.92 1045.62C1325.71 1031.5 1319.25 1022.41 1300.47 1027.39C1287.2 1033.98 1264.78 1051.05 1253.96 1053.51Z" fill="black"/>
<path fill-rule="evenodd" clip-rule="evenodd" d="M1368.77 831.116C1347.77 851.304 1312.71 857.097 1284.77 846.27C1213.03 818.383 1248.14 731.403 1303.47 708.044C1310.39 706.441 1319.62 702.639 1328.04 701.776C1328.8 701.428 1330.45 702.434 1332.46 701.483C1393.47 707.82 1407.37 795.931 1368.77 831.116M1137.37 836.283C1113.82 865.348 1070.03 874.315 1034.25 860.804C963.566 834.907 988.635 757.777 1036.99 727.539C1139.15 691.828 1181.33 782.693 1137.37 836.283M984.148 771.884C984.083 771.855 984.017 771.84 983.949 771.811C984.323 771.658 984.697 771.505 985.069 771.349C984.948 771.644 984.816 771.935 984.698 772.23C984.515 772.112 984.354 771.975 984.148 771.884M1417.4 740.466C1411.63 740.477 1403.3 741.359 1398.53 745.081C1386.76 708.144 1343.3 673.958 1305.51 698.886C1275.75 707.79 1253.66 727.537 1241.11 753.791C1218.48 741.267 1182.9 746.615 1163.27 763.176C1150.42 723.667 1118.79 709.832 1081.14 707.79C1040.05 701.528 999.095 738.656 986.316 768.44C975.69 767.315 959.812 764.169 949.816 770.27C884.938 754.441 771.51 745.714 758.32 754.508C748.921 757.864 743.763 778.504 756.892 779.618C768.332 778.107 755.556 764.494 767.088 763.009C828.534 759.465 888.185 770.978 948.981 775.809C954.409 782.601 971.947 784.874 981.303 782.144C966.567 832.669 998.377 867.043 1046.04 877.339C1119.84 893.111 1184.05 831.689 1164.76 767.801C1187.11 757.453 1212.83 757.898 1237.18 763.348C1196.49 902.694 1437.71 896.442 1400.04 749.856C1425.11 761.459 1430.55 742.808 1417.4 740.466" fill="black"/>
</svg>
