<svg width="1965" height="2467" viewBox="0 0 1965 2467" fill="none" xmlns="http://www.w3.org/2000/svg">
<path fill-rule="evenodd" clip-rule="evenodd" d="M421.669 2169.14C527.585 2171.9 627.638 2174.95 733.35 2169.14C902.513 2159.41 1398.95 2176.96 1508.07 2169.14C1516.31 2168.56 1544.63 2176.96 1545.22 2169.14C1550.01 2114.74 1553.12 1564.31 1538.87 1526.44C1524.62 1488.57 1454.27 1306.5 1364.64 1221.61C1339.65 1198.67 1301.61 1189.79 1280.6 1163.29C1262.49 1134.38 1263.9 1117.42 1246.01 1102.22C1238.24 1095.62 1219.94 1092.94 1206.33 1083.78C1192.65 1071.14 1205.6 1043.29 1199.99 1025.68C1188.42 981.708 1145.78 953.496 1099.19 946.849C1034.42 932.431 966.047 946.063 935.024 993.392C923.477 1011.01 929.622 1032.42 915.42 1060.65C916.433 1081.99 889.662 1087.14 873.66 1095.6L841.882 1125.48C743.978 1176.72 628.805 1204.4 543.021 1273.25C470.088 1342.09 397.545 1421.64 365.185 1514.77C358.486 1540.15 356.299 1566.38 353.523 1592.31C345.597 1668.08 323.528 1741.63 304.535 1815.44C282.878 1908.44 262.691 2007.16 291.879 2101.04C300.294 2120.91 402.512 2168.22 421.669 2169.14Z" fill="white"/>
<path fill-rule="evenodd" clip-rule="evenodd" d="M929.413 1000.97C930.261 998.392 933.912 999.116 934.189 1001.56C936.939 1025.83 933.48 1051.19 930.159 1075.3C928.567 1086.93 927.649 1099.04 925.227 1110.51C924.916 1111.73 924.622 1112.97 924.345 1114.2C925.141 1115.51 927.495 1116.99 928.617 1118.01L933.5 1122.43L943.286 1131.24C962.436 1148.49 981.583 1165.75 1000.73 1183.01L1028.84 1208.35C1038.48 1217.04 1049.43 1225.36 1057.88 1235.05C1062.47 1240.31 1063.5 1246.77 1058.99 1252.4C1056.76 1255.18 1052.75 1257.21 1048.68 1257.63C1050.27 1259.69 1051.5 1262.02 1052.28 1264.61C1053.87 1269.89 1048.13 1276.38 1042.02 1274.17C1035.09 1271.69 1029.36 1267.25 1022.3 1265.13C1015.17 1262.97 1007.43 1262.55 1000.04 1263.71C996.649 1264.24 993.328 1265.03 990.093 1266.03C1024.71 1280.85 1062.15 1289.36 1100.35 1290.59C1108.13 1290.83 1115.9 1290.73 1123.63 1290.25C1136.64 1289.46 1149.56 1287.63 1162.26 1284.66C1172.24 1282.33 1182.11 1279.4 1191.7 1275.86C1196.4 1274.12 1201.05 1272.21 1205.55 1270.04L1205.95 1269.82C1206.96 1269.23 1225.76 1259.31 1226.08 1257.82C1226.41 1256.33 1226.41 1255.81 1225.8 1254.52C1225.19 1253.22 1223.49 1252.32 1223.49 1252.32C1217.69 1250.02 1211.67 1247.87 1205.33 1247.83C1190.73 1247.75 1174.8 1257.79 1162.72 1264.63C1149.46 1272.14 1137.26 1280.93 1124.49 1289.07C1124.2 1289.27 1123.87 1289.35 1123.56 1289.35C1122.21 1289.35 1120.97 1287.8 1121.83 1286.59C1130.98 1274.06 1143.33 1263.63 1156.25 1254.52L1161.45 1250.89C1173.28 1242.68 1187.12 1233.59 1201.51 1231.61C1219.13 1229.19 1237.54 1239.41 1253.26 1245.4L1281.11 1256C1286.07 1257.89 1291.47 1259.49 1296.47 1261.63L1284.8 1227.66C1278.97 1210.68 1273.15 1193.69 1267.39 1176.68L1266.27 1173.35C1260.54 1156.09 1255.27 1138.14 1245.72 1122.37C1243.43 1118.59 1240.82 1115.03 1238.24 1111.44C1235.56 1107.73 1234.56 1103.62 1231.19 1100.31C1224.51 1093.72 1214.94 1089.86 1205.81 1087.34C1203.58 1086.73 1204.24 1083.99 1206.33 1083.78C1215.7 1082.86 1224.64 1084.9 1233.11 1088.57L1236.63 1090.14C1244.64 1093.66 1252.45 1096.94 1258.39 1103.27C1271.96 1117.72 1279 1135.91 1285.47 1153.87L1287.2 1158.69C1289.62 1157.95 1306.07 1162.62 1308.13 1163.73C1369.79 1187.98 1417.29 1233.13 1452.03 1286.05C1490.08 1344.03 1510.8 1410.28 1527.91 1475.85C1533.19 1496.08 1538.24 1516.37 1543.09 1536.72C1521.48 1544.45 1498.51 1548.5 1478.28 1559.4C1470.57 1563.55 1477.53 1574.68 1485.26 1570.51C1504.21 1560.31 1525.79 1556.54 1546.07 1549.37C1557.07 1596.46 1566.85 1643.81 1575.04 1691.36C1600.21 1837.29 1616.11 1985.59 1615.1 2133.52C1615.09 2136.79 1614.05 2140.44 1612.13 2143.58C1613.26 2143.06 1614.14 2142.45 1614.64 2141.71C1621.02 2132.39 1637.02 2141.03 1630.6 2150.4L1629.67 2151.76C1624.85 2158.66 1620.35 2163.94 1611.89 2167.84C1603.36 2171.77 1594.12 2172.43 1584.71 2172.66C1552.73 2173.44 1520.73 2173.95 1488.71 2174.32C1484.32 2142.46 1482.53 2110.29 1476.49 2078.62C1474.93 2070.47 1461.59 2073.93 1463.14 2082.04C1468.98 2112.63 1470.85 2143.68 1474.93 2174.47C1406.48 2175.16 1338 2175.17 1269.61 2175.34C1176.92 2175.6 1084.24 2175.42 991.555 2175.37L951.832 2175.36C844.761 2175.36 737.687 2175.04 630.617 2174.38L605.154 2174.21C595.024 2118.66 588.129 2062.63 588.001 2006.17C587.982 1997.89 574.144 1997.88 574.163 2006.17C574.291 2062.56 581.11 2118.6 591.146 2174.14C565.795 2174.03 540.456 2174.12 515.103 2174.96L502.199 2175.38C476.38 2176.21 450.51 2176.71 424.74 2174.8C396.13 2172.66 367.193 2167.76 341.541 2155.23C329.988 2149.57 319.815 2142.34 311.121 2133.84C319.959 2129.06 328.922 2124.47 337.483 2119.26C344.905 2114.74 337.981 2103.59 330.498 2108.14C321.273 2113.76 311.576 2118.65 302.078 2123.84C295.201 2115.31 289.557 2105.83 285.27 2095.6C278.507 2079.46 275.895 2062.1 273.629 2045.01C270.95 2024.88 269.841 2004.58 269.841 1984.31C269.841 1941.66 274.667 1899.15 281.397 1857.02C287.833 1816.65 296.341 1776.62 305.334 1736.71L306.563 1731.27C315.437 1692.03 323.896 1652.69 334.067 1613.73C343.471 1577.7 354.339 1541.84 367.292 1506.68C378.82 1513.31 390.886 1519.11 402.234 1526.02C409.709 1530.57 416.65 1519.43 409.219 1514.9C397.111 1507.53 384.197 1501.41 371.978 1494.2C386.461 1456.55 403.461 1419.77 423.843 1384.55C464.663 1314.02 519.671 1250.92 590.124 1204.35C625.392 1181.04 664.086 1161.97 704.72 1148.1C746.147 1133.94 789.078 1126.18 832.979 1123C834.233 1122.91 834.936 1123.99 834.885 1124.98L834.867 1125.17L836.596 1125.43C837.236 1121.39 838.551 1117.48 841.059 1113.89C846.767 1105.71 857.594 1100.47 866.243 1095.45L868.293 1094.26C878.583 1088.33 889.442 1082.48 901.41 1080.4C901.825 1080.34 902.083 1080.74 901.806 1081.04C893.914 1089.46 883.822 1095.9 874.573 1103.02L872.447 1104.67C864.782 1110.53 854.09 1117.19 853.806 1127C853.479 1138.56 856.02 1150.58 856.938 1162.1C857.855 1173.59 858.493 1185.07 858.822 1196.59C860.017 1237.87 858.581 1279.16 854.653 1320.28L872.019 1309.46C899.044 1292.63 926.159 1275.85 953.837 1260.09C970.583 1250.55 989.403 1242.39 1009.47 1242.76C1015.09 1242.85 1021.44 1243.61 1027.53 1245.22C1020.97 1239.44 1014.69 1233.3 1008.27 1227.49C997.704 1217.91 987.135 1208.34 976.568 1198.78L946.095 1171.16L915.61 1143.55C906.167 1134.97 895.095 1127.07 896.098 1113.55C896.913 1102.77 902.81 1092.04 906.84 1081.64C907.411 1080.14 907.93 1078.66 908.414 1077.2C916.546 1052.06 921.162 1026.01 929.413 1000.97ZM1323.26 2079.49C1316.96 2073.62 1307.17 2082.72 1313.48 2088.59L1316.81 2091.68C1322.38 2096.85 1327.91 2102.18 1331.76 2108.57L1332.32 2109.53C1336.48 2116.86 1348.43 2110.37 1344.27 2103.03C1339.14 2093.97 1330.97 2086.66 1323.26 2079.49ZM1053.19 2077.83C1033.13 2074.27 1013.79 2074.27 993.719 2077.83C984.982 2079.38 988.681 2091.79 997.398 2090.25C1014.95 2087.13 1031.96 2087.13 1049.51 2090.25C1058.22 2091.79 1061.94 2079.39 1053.19 2077.83ZM782.189 1948.06C773.554 1946.02 769.869 1958.44 778.511 1960.47L782.766 1961.47C797.229 1964.79 811.003 1967.27 826.027 1964.18C834.605 1962.42 831.137 1950.31 822.689 1951.7L822.348 1951.77C808.446 1954.62 795.639 1951.23 782.189 1948.06ZM1263.48 1864.44C1257.09 1858.66 1247.3 1867.75 1253.7 1873.54C1261.68 1880.76 1271.1 1886.26 1282.5 1886.55C1291.28 1886.78 1291.4 1874.29 1282.9 1873.69L1282.5 1873.67C1274.86 1873.48 1268.77 1869.22 1263.48 1864.44ZM449.073 1830.05C457.04 1826.35 450.039 1815.24 442.089 1818.94L394.265 1841.18V1841.18C386.298 1844.89 393.298 1856 401.248 1852.3L449.073 1830.05V1830.05ZM1394.09 1832.89C1385.18 1832.66 1385.19 1845.53 1394.09 1845.77C1402.46 1845.98 1411.04 1848.93 1418.5 1852.3C1426.48 1855.9 1433.5 1844.81 1425.48 1841.18C1415.73 1836.78 1405.03 1833.17 1394.09 1832.89ZM947.242 1770.73C954.566 1766.1 947.65 1754.94 940.257 1759.61C930.169 1765.99 921.029 1773.53 911.102 1780.1L908.374 1781.86C901.05 1786.49 907.966 1797.65 915.359 1792.98C926.362 1786.02 936.239 1777.69 947.242 1770.73ZM1461.84 1677.16C1452.94 1677.16 1452.93 1690.04 1461.84 1690.04L1463.53 1690.03C1470.88 1690 1478.63 1689.81 1485.46 1692.54L1486.25 1692.87C1494.26 1696.38 1501.29 1685.28 1493.23 1681.75C1483.21 1677.36 1472.74 1677.17 1461.84 1677.16ZM693.349 1667.97L694.511 1667.56C702.831 1664.78 699.243 1652.34 690.832 1655.15C678.156 1659.39 668.295 1667.39 657.299 1674.34C649.971 1678.97 656.887 1690.12 664.282 1685.45C673.756 1679.47 682.571 1671.89 693.349 1667.97V1667.97ZM1212.39 1634.47L1214.26 1633.55C1222.18 1629.75 1215.19 1618.64 1207.28 1622.43C1201 1625.43 1195.37 1629.43 1189.21 1632.62L1187.35 1633.55C1179.43 1637.34 1186.42 1648.45 1194.33 1644.67C1200.61 1641.66 1206.23 1637.66 1212.39 1634.47V1634.47ZM1001.88 1509.78L1000.45 1508.5C994.081 1502.69 984.289 1511.79 990.665 1517.6C1006.59 1532.1 1025.42 1543.11 1044.41 1553.75L1047.86 1555.68C1055.52 1559.96 1062.48 1548.83 1054.85 1544.57L1049.78 1541.73C1032.89 1532.26 1016.2 1522.48 1001.88 1509.78V1509.78ZM618.94 1497.76C624.305 1491.27 612.636 1484.93 607.182 1491.04L606.99 1491.26C601.405 1498 594.777 1504.11 587.85 1509.69L586.548 1510.72C582.424 1513.99 574.919 1520.98 569.126 1521.44C560.318 1522.14 560.239 1535.02 569.126 1534.31C578.09 1533.61 585.803 1527.74 592.575 1522.71C602.431 1515.39 611.247 1507.05 618.94 1497.76ZM1355.15 1450.86C1361.58 1445.24 1352.08 1436.29 1345.59 1441.56L1345.36 1441.76C1333.35 1452.26 1316.06 1455.08 1300.59 1458.64C1291.95 1460.63 1295.61 1473.05 1304.27 1471.05L1311.32 1469.43C1327.12 1465.76 1342.99 1461.49 1355.15 1450.86ZM1081.09 1369.65C1072.46 1367.61 1068.77 1380.03 1077.41 1382.07C1092.09 1385.54 1105.99 1390.02 1119.6 1396.25C1127.56 1399.89 1134.58 1388.8 1126.58 1385.13C1111.94 1378.43 1096.89 1373.39 1081.09 1369.65ZM1222.45 1098.26C1222.24 1097.68 1222.9 1097.02 1223.54 1097.23C1239.07 1102.62 1230.81 1121.54 1225.99 1132.87L1225.11 1134.94C1217.56 1153.09 1206.99 1170.76 1195.47 1187.01C1183.41 1204.02 1170.02 1220.31 1155.53 1235.6C1149.24 1242.24 1142.72 1248.68 1135.98 1254.94L1133.44 1257.27C1126.62 1263.5 1117.84 1274.45 1107.27 1273.24C1095.88 1271.97 1089.54 1260.65 1097.84 1252.06C1103.7 1245.98 1111.83 1241.13 1118.39 1235.6C1124.89 1230.13 1131.19 1224.48 1137.33 1218.67C1149.89 1206.74 1161.79 1194.14 1172.67 1180.87C1183.19 1168.03 1193.26 1154.83 1202.42 1141.12L1204.24 1138.37C1211.21 1127.7 1227.3 1112.01 1222.45 1098.26ZM672.252 1233.12C664.88 1228.43 657.951 1239.58 665.268 1244.23C678.722 1252.79 690.558 1263.15 705.121 1270.19C712.918 1273.95 719.853 1263.16 712.382 1259.21L712.106 1259.07C697.553 1252.04 685.699 1241.67 672.252 1233.12Z" fill="black"/>
<path fill-rule="evenodd" clip-rule="evenodd" d="M1062.14 410.781C1160.36 410.781 1287.14 468.1 1297.95 526.805C1310.69 595.987 1378.91 861.447 1363.5 946.576C1348.1 1031.7 1265.08 1092.99 1132.24 1092.99C999.397 1092.99 900.244 1025.59 877.478 1002.45C854.712 979.306 812.521 896.685 812.521 896.685C812.521 896.685 741.395 887.884 741.058 833.944C740.72 780.003 787.301 760.378 787.301 760.378C787.301 760.378 770.693 547.506 812.521 492.084C854.35 436.663 963.923 410.781 1062.14 410.781Z" fill="white"/>
<path fill-rule="evenodd" clip-rule="evenodd" d="M1291.94 517.331C1291.87 516.094 1293.8 515.949 1294.17 517.043C1315.36 582.17 1328.42 632.924 1342.17 699.694L1346.23 719.336C1357.08 771.722 1368.04 824.185 1377.3 876.826L1377.84 879.969C1382.48 907.217 1385.15 934.731 1379.34 962.036C1373.91 987.559 1359.07 1010.96 1339.8 1029.59C1302.56 1065.61 1250.8 1088.11 1198.74 1098.16C1172.41 1103.25 1145.25 1105.21 1118.42 1103.44C1105.05 1102.57 1091.7 1100.82 1078.61 1098.23L1077.16 1097.94C1063.96 1095.29 1052.25 1092.13 1045.24 1080.57C1043.47 1077.66 1044.18 1072.67 1047.89 1071.18C1054.87 1068.37 1060.01 1067.2 1067.64 1068.01C1074.92 1068.78 1082.03 1070.82 1089.23 1072.09C1102.98 1074.52 1116.95 1075.75 1130.95 1076.04C1158.43 1076.6 1185.99 1073.4 1212.26 1065.77C1257.41 1052.65 1303.28 1027.57 1329.66 990.038C1360.69 945.891 1348.34 892.312 1340.11 843.558L1339.87 842.082C1331.54 792.249 1323.31 742.416 1315.32 692.551L1311.91 671.178C1302.95 614.709 1294.5 574.397 1291.94 517.331ZM833.568 379.113C856.101 365.296 884.1 361.901 910.566 362.091L913.88 362.13C947.768 362.611 1118.35 366.388 1175.46 367.55L1189.05 367.816C1207.03 368.132 1243.3 368.461 1261.99 368.779L1263.07 368.798C1272.23 368.958 1281.4 369.023 1290.57 369.296L1291.91 369.341C1298.78 369.614 1304.49 370.57 1309.87 375.074C1312.61 377.356 1313.68 380.837 1313.42 384.153L1313.38 384.584L1327 385.695C1336.24 386.455 1341.13 394.168 1337.46 401.973L1337.27 402.351C1330.75 415.289 1325.77 452.946 1322.28 466.866C1320.44 474.188 1318.97 481.623 1318.11 489.106C1317.42 494.998 1317.35 500.902 1313.82 506.084C1306.29 517.139 1285.12 517.043 1284.74 501.385C1284.72 500.886 1284.74 500.403 1284.79 499.936C1231.52 497.764 1158.78 497.973 1105.57 500.934C1055.88 503.702 1006.41 509.978 957.713 519.585C945.38 522.015 933.081 524.671 920.869 527.551C910.854 529.901 898.555 531.301 889.595 536.338C879.562 542.003 879.753 552.157 880.842 561.829C882.012 572.08 883.963 566.798 886.726 576.14L886.897 576.73C889.751 586.869 893.279 596.894 897.95 606.421C900.614 611.861 904.905 617.091 903.277 623.351C902.361 626.875 899.366 630.641 896.618 633.103C884.093 644.287 862.922 637.158 854.412 652.478C845.505 668.498 845.284 690.199 844.528 707.925L844.483 708.964C843.931 721.178 844.085 733.424 844.95 745.606C845.728 756.709 848.909 767.702 844.829 778.371C841.852 786.128 832.133 786.852 827.047 780.544C826.463 779.819 825.928 779.077 825.427 778.33L824.937 777.582L824.904 777.599C825.387 778.307 825.836 779.032 826.269 779.771C826.736 780.592 825.577 781.493 824.868 780.785C812.898 768.667 795.41 771.081 781.866 779.562C768.149 788.188 762.735 804.57 762.026 819.264C761.23 835.563 762.787 854.668 770.086 869.729C773.165 876.102 777.557 881.959 784.841 884.389C788.147 885.484 791.293 885.339 794.735 885.596C798.314 885.852 802.623 887.527 806.098 887.302C810.616 887.003 814.672 891.801 813.389 895.822L813.296 896.089C813.228 896.282 813.157 896.475 813.09 896.652C813.261 896.797 813.434 896.974 813.555 897.231C826.701 922.223 844.725 944.463 864.652 965.094C874.634 975.409 885.703 984.888 897.275 993.658C902.983 997.987 909.003 1002.32 915.351 1005.81C917.461 1006.95 919.397 1007.72 921.77 1008.35C922.875 1008.64 924.138 1008.79 925.211 1009.12L926.324 1009.48C926.401 1009.5 926.473 1009.52 926.543 1009.54C929.725 1009.88 932.406 1011.84 933.462 1014.92C936.212 1022.93 931.213 1030.01 922.668 1032.22C913.41 1034.62 904.685 1030.4 897.347 1025.54L896.86 1025.22C881.898 1015.19 868.111 1003.94 856.176 990.81C832.565 964.885 817.774 934.872 810.928 901.673C809.231 905.068 806.947 908.029 802.986 910.089C796.828 913.308 789.477 913.308 782.731 912.23C769.152 910.089 757.58 902.381 749.848 891.953C741.82 881.139 738.83 868.007 737.013 855.213C735.214 842.402 734.332 829.546 736.131 816.704C738.71 798.262 747.029 780.029 763.202 769.922C751.094 745.381 748.966 717.863 749.831 690.988C750.886 657.902 757.027 624.445 761.749 591.664L775.174 498.472V498.472L775.723 494.715C778.962 472.791 782.906 450.752 791.726 430.094C800.426 409.737 813.642 391.327 833.568 379.113ZM777.075 819.986C799.251 809.977 823.208 819.198 835.143 838.622C845.521 855.509 814.666 866.671 809.518 849.264L809.37 848.728C805.979 835.548 792.174 824.154 777.767 822.384C776.574 822.225 775.69 820.615 777.075 819.986Z" fill="black"/>
<path fill-rule="evenodd" clip-rule="evenodd" d="M1256.92 920.085C1242.42 912.918 1225.39 914.131 1210.83 920.533C1193.02 928.358 1179.25 941.209 1167.06 955.339C1162.38 960.764 1158 966.421 1153.62 972.073C1151.82 974.399 1150.02 976.724 1148.2 979.031C1147.84 979.464 1147.46 979.929 1147.04 980.422C1144.13 983.907 1140.15 988.727 1138.63 993.101C1138.01 994.857 1137.79 996.552 1138.06 998.095C1138.19 998.843 1138.44 999.559 1138.82 1000.24C1136.49 1000.8 1134.94 1000.26 1133.87 999.188C1132.17 997.488 1131.57 994.933 1131.55 992.001C1131.46 981.499 1138.91 966.19 1141.95 959.881C1142.26 959.231 1142.53 958.674 1142.74 958.224C1153.73 934.826 1171.31 912.034 1195.76 899.422C1219.44 887.203 1247.47 884.894 1271.98 896.445C1299.05 909.208 1306.43 934.479 1309.5 960.451C1309.97 964.429 1308.03 968.099 1305.06 970.868C1301.7 973.993 1296.98 976.015 1292.57 976.015C1287.99 976.015 1283.8 974.212 1280.73 971.359C1277.64 968.483 1275.68 964.535 1275.65 960.257L1275.62 957.767C1275.48 949.094 1274.82 940.952 1271.44 934.047C1268.72 928.496 1264.27 923.715 1256.92 920.085ZM1220.88 803.614C1233.95 811 1253.85 828.224 1239.8 846.537C1223.26 862.683 1199.44 844.17 1187.71 835.797C1176.83 829.308 1164.6 845.997 1174.7 853.574C1259.49 911.983 1293.91 805.545 1227.49 794.929C1220.18 793.759 1217.46 801.329 1220.88 803.614ZM1110.93 806.038C1107.41 807.641 1103.51 808.291 1099.69 807.549C1096.26 806.883 1092.91 805.097 1089.95 801.949C1085.87 797.622 1082.92 791.478 1084.89 785.615L1085.46 784.107C1086.13 782.353 1087.03 780.709 1088.13 779.219C1088.83 776.025 1088.97 773.933 1089.1 771.947C1089.14 771.439 1089.17 770.939 1089.21 770.44C1089.42 767.658 1089.86 764.746 1090.86 762.068C1091.05 761.564 1091.26 761.065 1091.49 760.571C1090.93 760.388 1090.37 760.205 1089.8 760.02C1085.92 758.748 1082.06 757.455 1078.21 756.103C1067.27 752.255 1056.45 747.917 1045.98 743.064C1040.81 740.665 1035.76 737.966 1030.78 735.236C1028.41 733.765 1023.19 730.339 1020.85 728.495L1019.08 727.095L1018.15 729.08C1017.15 730.016 1016.34 730.089 1015.66 729.879C1014.94 729.653 1014.4 729.119 1014.06 728.477C1013.65 727.705 1013.52 726.765 1013.74 725.858C1013.93 725.04 1014.41 724.251 1015.22 723.63C1018.31 721.263 1022.66 722.29 1026.27 722.95C1026.79 723.044 1027.29 723.136 1027.79 723.22C1033.41 724.175 1039.02 725.314 1044.6 726.489L1051.33 727.914C1053.9 728.459 1056.46 729.006 1059.03 729.553C1088.17 735.766 1117.26 741.964 1147.04 744.688L1150.18 744.961C1155.48 745.402 1160.21 747.499 1163.32 750.839C1166.19 753.915 1167.65 758.041 1166.95 762.826C1166.27 767.508 1163.44 771.407 1159.55 773.821C1155.67 776.224 1150.74 777.157 1145.81 775.927C1136.57 773.62 1127.35 771.194 1118.17 768.62L1120.31 773.366C1122.16 777.5 1123.86 781.784 1124.06 786.157C1124.25 790.267 1122.96 794.244 1120.71 797.647C1118.33 801.269 1114.87 804.247 1110.93 806.038ZM1318.68 707.158C1316.4 710.053 1313.78 712.526 1311.17 715.003C1305.53 720.355 1299.89 725.707 1293.86 730.685C1291.67 732.491 1289.45 734.27 1287.24 736.049C1286.42 736.71 1285.6 737.37 1284.78 738.032L1283.48 739.075L1284.59 740.288C1284.89 740.614 1285.17 740.951 1285.4 741.307C1288.72 746.359 1290.56 751.843 1292.43 757.343C1293.7 761.111 1294.99 764.888 1296.71 768.557L1297.27 769.707C1299.51 774.197 1300.11 778.884 1298.92 783.114C1297.8 787.098 1295.08 790.654 1290.71 793.244C1289.61 793.895 1287.73 794.652 1286.46 794.914C1281.46 795.947 1276.38 795.227 1272.24 793.038C1268.28 790.945 1265.17 787.506 1263.79 782.996C1261.76 776.332 1260.45 769.562 1260.52 762.964C1260.54 761.846 1260.59 760.724 1260.67 759.6C1259.88 760.347 1258.97 761.005 1257.94 761.547C1254.73 763.233 1251.11 763.4 1247.7 762.538C1243.84 761.564 1240.25 759.284 1237.76 756.303C1235.57 753.678 1234.23 750.498 1234.4 747.175C1234.55 744.274 1235.87 741.286 1238.68 738.472L1241.33 735.956C1243.31 734.091 1246.03 732.657 1248.93 731.932C1251.59 731.266 1254.41 731.195 1256.94 731.998C1260.35 731.13 1262.56 730.106 1264.61 729.154C1266.07 728.476 1267.45 727.836 1268.68 727.338C1274.67 724.914 1280.64 722.444 1286.59 719.929C1291.74 717.747 1296.98 715.733 1302.22 713.718C1307.74 711.596 1313.26 709.472 1318.68 707.158Z" fill="black"/>
<path fill-rule="evenodd" clip-rule="evenodd" d="M1215.87 884.013C1196.63 875.952 1162.09 882.986 1149.55 885.783C1120.39 892.287 1091.06 906.344 1082 928.367C1071.79 953.187 1092.17 961 1095.16 959.724C1115.35 961.046 1139.38 949.243 1160.53 946.196C1177.7 943.702 1195.81 941.524 1211.9 933.037C1223.64 939.048 1250.17 942.297 1271.58 947.553C1289.81 952.027 1297.71 961.729 1314.62 959.666C1334.88 957.194 1326.58 917.553 1304 901.494C1279.29 883.919 1237.5 876.792 1215.87 884.013ZM1253.96 1053.51C1237.13 1057.33 1236 1023.01 1234.11 1010.88C1232.64 1001.41 1224.33 976.985 1203.27 978.039C1182.21 979.093 1174.29 999.559 1175.36 1012.29C1176.05 1020.54 1184.23 1062.35 1158.13 1067.64C1141.49 1067.59 1122.25 1066.54 1104.75 1063.54C1084.16 1059.2 1057.38 1044.01 1050.31 1073.93C1047.77 1084.69 1138.47 1116.68 1178.72 1119.58C1219.54 1127.27 1267.3 1115.44 1296.36 1086.39C1302.97 1079.78 1321.59 1052.34 1322.92 1045.62C1325.71 1031.5 1319.25 1022.41 1300.47 1027.39C1287.2 1033.98 1264.78 1051.05 1253.96 1053.51Z" fill="black"/>
<path fill-rule="evenodd" clip-rule="evenodd" d="M1368.77 831.116C1347.77 851.304 1312.71 857.097 1284.77 846.27C1213.03 818.383 1248.15 731.403 1303.47 708.044C1310.39 706.441 1319.62 702.639 1328.04 701.776C1328.8 701.428 1330.46 702.434 1332.46 701.483C1393.47 707.82 1407.37 795.931 1368.77 831.116M1137.37 836.283C1113.82 865.348 1070.03 874.315 1034.25 860.804C963.566 834.907 988.635 757.777 1036.99 727.539C1139.15 691.828 1181.33 782.693 1137.37 836.283M984.149 771.884C984.083 771.855 984.017 771.84 983.95 771.811C984.324 771.658 984.697 771.505 985.069 771.349C984.948 771.644 984.817 771.935 984.699 772.23C984.516 772.112 984.355 771.975 984.149 771.884M1417.4 740.466C1411.63 740.477 1403.3 741.359 1398.53 745.081C1386.76 708.144 1343.3 673.958 1305.51 698.886C1275.75 707.79 1253.67 727.537 1241.11 753.791C1218.48 741.267 1182.9 746.615 1163.28 763.176C1150.42 723.667 1118.79 709.832 1081.14 707.79C1040.05 701.528 999.096 738.656 986.316 768.44C975.69 767.315 959.813 764.169 949.817 770.27C884.939 754.441 771.51 745.714 758.321 754.508C748.921 757.864 743.763 778.504 756.892 779.618C768.333 778.107 755.557 764.494 767.089 763.009C828.535 759.465 888.186 770.978 948.981 775.809C954.409 782.601 971.947 784.874 981.303 782.144C966.568 832.669 998.378 867.043 1046.04 877.339C1119.84 893.111 1184.05 831.689 1164.76 767.801C1187.11 757.453 1212.83 757.898 1237.18 763.348C1196.49 902.694 1437.71 896.442 1400.04 749.856C1425.11 761.459 1430.55 742.808 1417.4 740.466" fill="black"/>
</svg>
