<svg width="1965" height="2467" viewBox="0 0 1965 2467" fill="none" xmlns="http://www.w3.org/2000/svg">
<path fill-rule="evenodd" clip-rule="evenodd" d="M936.154 1033.43C978.853 1003.18 1086.05 989.573 1131.62 1018.7C1176.63 1047.95 1181.54 1095.25 1202.52 1138.76C1222.31 1130.08 1254.99 1142.51 1260.73 1159.59C1267.84 1167.65 1268.16 1190.29 1273.07 1201.12C1486.59 1232.74 1519.01 1387.61 1544.71 1563.44C1578.71 1741.86 1655.89 1919.88 1622.39 2103.48C1626.75 2109.36 1630.19 2115.07 1633.38 2121.85C1641 2133.93 1631.18 2151.02 1615.8 2150.35C1595.89 2148.73 1576.17 2146.51 1556.17 2145.81C1500.71 2144.02 1445.21 2144.23 1389.73 2144.89L1382.17 2144.98C1102.58 2148.22 823.011 2154.6 543.413 2156.29C533.27 2156.31 528.304 2147.84 529.658 2139.49C532.386 2122.69 534.917 2105.87 537.558 2089.05C471.426 2105.3 401.122 2109.39 335.177 2090.76C330.564 2086.39 345.926 2088.76 348.363 2088.09C287.673 2049.51 305.797 1968.23 311.173 1909.69C344.602 1709.1 356.387 1487.15 485.546 1315.98C541.422 1246.12 623.342 1190.81 717.473 1178.37L720.085 1178.04C747.609 1174.62 778.284 1173.52 802.349 1159.59C829.415 1139.49 840.948 1102.35 869.423 1102C878.825 1101.89 891.616 1112.95 905.38 1120.47C906.407 1103.94 915.981 1089.99 918.095 1077.17L918.266 1076.08C920.472 1061.14 917.451 1047.7 936.154 1033.43ZM1395.04 1568.74C1335.03 1529.96 1180.02 1549.44 1176.47 1551.61C1168.66 1556.4 1165.3 1556.82 1161.07 1563.03C1156.9 1563.54 1152.73 1564.08 1148.56 1564.63C1140.21 1567.17 1146.4 1576.73 1156.05 1573.32C1150.25 1596.61 1167.33 1613.18 1174.13 1636.2C1176.34 1643.68 1174.21 1657.13 1174.13 1664.77C1174.79 1674.51 1186.37 1686.01 1184.44 1695.79C1177.58 1730.53 1140.36 1764.42 1156.05 1798.11C1166.45 1817.14 1197.72 1826.85 1218.5 1833.31C1261.57 1848.69 1336.62 1832.74 1361.64 1798.11C1374.99 1779.64 1390.45 1733.06 1398.41 1718.61L1400.17 1695.69C1404.52 1638.71 1408.39 1577.37 1395.04 1568.74Z" fill="white"/>
<path fill-rule="evenodd" clip-rule="evenodd" d="M858.968 1098.64C863.111 1095.23 869.241 1099.52 866.608 1104.13C860.693 1114.49 854.625 1124.31 846.685 1133.47C841.871 1139.02 836.715 1144.27 831.489 1149.47C844.9 1160.26 856.401 1173.66 867.262 1186.22C881.15 1202.28 894.281 1219.02 909.871 1233.72C925.247 1248.22 942.247 1258.35 962.803 1265.11L966.955 1266.45C987.605 1273.19 1009.68 1282.3 1021.32 1300.49C1023.61 1304.08 1018.99 1308.51 1015.1 1306.27C994.878 1294.62 971.113 1292.28 949.097 1284.58C927.83 1277.14 909.29 1265.7 892.909 1251.09C876.556 1236.51 862.825 1219.91 848.503 1203.67C834.34 1187.61 819.09 1173.9 802.338 1160.31C776.486 1176.49 746.976 1183.53 716.97 1190.45L713.695 1191.2C683.652 1198.12 653.771 1206.16 625.586 1218.21C600.737 1228.83 576.295 1241.52 556.054 1258.8C534.567 1277.15 517.843 1300.58 502.537 1323.49C468.298 1374.76 444.227 1430.92 423.036 1487.77C400.995 1546.9 382.559 1607.21 367.677 1668.24C360.107 1699.28 353.96 1730.54 348.907 1762.02C346.475 1777.19 344.315 1792.38 342.417 1807.61C340.391 1823.87 339.926 1840.6 334.564 1856.24C332.265 1862.94 326.837 1865.72 321.404 1865.48L320.3 1878.32C318.837 1895.44 317.473 1912.57 317.012 1929.79C316.248 1958.43 316.594 1986.99 318.809 2015.57L319.122 2019.47C320.863 2040.33 324.751 2063.77 341.611 2079.04C359.071 2094.86 385.922 2099.83 409.455 2100.12C464.266 2100.78 517.027 2076.69 565.529 2055.55C615.481 2033.78 664.068 2009.62 711.491 1983.41C735.642 1970.07 759.531 1956.28 783.117 1942.09C794.69 1935.12 806.183 1928.04 817.589 1920.84C824.122 1916.72 830.313 1912.2 836.964 1908.54C833.705 1905.71 832.25 1901.28 834.98 1897.4C815.754 1881.88 807.752 1854.17 806.816 1831.75C806.06 1813.65 808.923 1795.61 811.182 1777.68C812.322 1768.64 813.73 1759.62 815.191 1750.62C815.769 1747.07 816.21 1743.26 816.885 1739.51C764.97 1766.05 711.6 1789.69 656.817 1810.69C628.736 1821.45 600.296 1831.13 571.462 1840L565.618 1841.79C538.299 1850.11 510.325 1857.97 482.082 1862.73C480.572 1862.98 479.346 1860.9 480.958 1860.24C508.482 1848.94 536.959 1839.41 564.896 1829.01L569.487 1827.27V1827.27C568.959 1827.24 568.413 1827.17 567.842 1827.05C551.458 1823.37 535.201 1817.7 519.132 1812.93C504.218 1808.5 487.462 1805.71 473.522 1799.03C472.449 1798.51 473.05 1797.12 474.094 1797.06C489.763 1796.05 506.771 1800.3 522.133 1802.79L527.904 1803.73C537.572 1805.32 547.454 1807.03 557.074 1809.25C557.422 1806.25 559.223 1803.24 561.784 1801.47C589.974 1782.05 587.111 1742.83 590.126 1713.9L592.362 1692.42C596.294 1654.84 600.455 1617.26 606.775 1579.95C607.112 1577.96 610.425 1578.53 610.439 1580.42C610.765 1626.66 607.013 1672.69 605.132 1718.85L604.841 1726.43C603.801 1754.92 602.986 1784.5 583.7 1806.42C586.397 1804.95 590.043 1804.95 592.228 1807.37C594.913 1810.34 596.462 1813.68 596.414 1816.96C613.841 1810.16 631.192 1803.18 648.459 1796.07C703.972 1773.19 758.321 1747.58 811.232 1719.88C816.926 1716.9 822.339 1719.24 825.155 1723.17L825.561 1723.12C825.629 1723.11 825.698 1723.1 825.769 1723.1L826.172 1723.08C826.187 1723.08 826.203 1723.08 826.217 1723.08C833.665 1719.28 843.812 1721.99 850.203 1727.54C850.392 1727.71 850.553 1727.89 850.721 1728.07C858.812 1724.69 866.368 1720.13 873.225 1714.34C887.256 1702.51 899.142 1687.88 909.503 1673.21C928.584 1646.19 944.791 1616.15 970.567 1593.9C991.509 1575.83 1017.47 1564.58 1044.71 1557.52C1044.6 1556.78 1044.9 1555.99 1045.45 1555.47C1046.85 1554.13 1047.85 1553.67 1049.66 1554.48C1049.8 1554.55 1049.89 1554.64 1049.94 1554.73L1052.6 1550.51C1054.05 1548.22 1055.54 1545.91 1056.06 1545.3C1059.15 1541.68 1062.34 1538.08 1065.57 1534.56C1071.04 1528.6 1077.29 1522.72 1084.52 1518.59C1100.34 1509.54 1116.98 1514.66 1133.25 1519.61C1143.09 1522.6 1152.88 1525.68 1162.7 1528.71L1163.71 1529.02C1171.03 1531.21 1179.59 1533.12 1182.87 1540.34C1184.16 1543.19 1184.36 1546.15 1183.76 1549.03C1253.27 1532.58 1330.47 1540.14 1398.3 1559.44C1400.9 1560.18 1403.5 1562.18 1404.05 1564.79C1411.82 1601.87 1415.28 1639.9 1411.77 1677.61C1408.73 1710.16 1400.98 1742.06 1386.37 1771.86L1385.54 1773.55C1371.81 1801.16 1350.05 1835.21 1316.81 1843.87C1296.75 1849.09 1274.55 1846.01 1254.09 1845.06C1234.2 1844.12 1213.86 1843.99 1194.16 1841.08C1176.62 1838.49 1161.24 1831.17 1150.4 1817.9C1141.04 1806.45 1136.12 1792.61 1132.08 1778.84C1130.23 1779.39 1128.4 1779.97 1126.59 1780.63C1118.97 1783.39 1112.51 1787.87 1106.67 1793.13C1094.34 1804.24 1084.78 1817.73 1071.87 1828.33C1060.19 1837.93 1046.88 1845.39 1032.61 1851.13C1003.03 1863.02 971.295 1867.78 940.005 1874.08L937.822 1874.52C914.266 1879.33 890.223 1885.23 869.431 1896.64C869.025 1900 867.38 1903.16 864.744 1905.23C868.411 1908.43 869.964 1913.51 866.742 1918.27C857.74 1931.56 842.235 1939.12 828.316 1947.62L827.41 1948.18C813.718 1956.62 799.906 1964.9 785.981 1973.01C757.674 1989.5 728.775 2005.08 699.467 2019.97C652.33 2043.93 604.181 2066.53 555.159 2087.03C558.102 2100.49 557.027 2114.38 559.238 2127.94L559.577 2129.87C560.522 2134.9 559.246 2139.11 555.521 2142.4L555.126 2142.74L555.133 2142.69L554.784 2142.99L554.667 2143.08L554.706 2143.05C554.277 2143.42 553.834 2143.76 553.382 2144.05L552.807 2144.39V2144.39C549.219 2146.42 544.6 2146.4 540.926 2144.61L540.507 2144.39L539.801 2144.02C534.947 2141.42 531.6 2134.99 533.614 2129.87C538.562 2117.31 540.432 2103.9 545.002 2091.25L541.377 2092.76V2092.76L536.598 2094.69C484.917 2115.49 427.509 2132.99 371.198 2118.82C346.318 2112.56 323.063 2099.3 310.614 2077.71C298.364 2056.45 296.632 2031.78 295.982 2008.14C295.179 1978.96 296.86 1949.34 300.996 1920.41C303.773 1900.99 307.13 1881.21 312.309 1861.99C309.645 1859.81 307.687 1856.67 307.17 1852.78C304.726 1834.43 309.003 1815.35 311.622 1797.09C314.18 1779.26 317.007 1761.47 320.203 1743.73C326.657 1707.91 334.156 1672.17 342.886 1636.77C358.422 1573.76 378.939 1511.88 403.64 1451.47L405.803 1446.21C428.628 1391 455.056 1336.97 491.856 1288.46C509.459 1265.26 528.068 1244.22 552.942 1227.5C576.245 1211.83 602.53 1200.55 629.656 1191.92C656.812 1183.3 684.723 1177.51 713.127 1173.92C741.974 1170.26 772.423 1168.02 799.333 1157.02C795.929 1151.34 798.85 1143.67 804.579 1140.15C823.859 1128.3 841.688 1112.89 858.968 1098.64ZM1476.15 1613.96C1476.96 1612.82 1478.88 1613.54 1478.53 1614.89C1469.15 1650.63 1460.35 1686.44 1454.6 1722.87C1444.22 1788.6 1446.13 1855.2 1446.98 1921.42L1447.02 1924.85C1447.46 1960.52 1448.06 1996.19 1449.33 2031.85C1449.97 2049.87 1451.24 2068.07 1450.55 2086.1C1450.17 2095.88 1447.37 2105.13 1446.38 2114.8C1445.51 2123.25 1446.28 2131.83 1446.72 2140.29C1447.01 2145.91 1438.08 2145.67 1437.47 2140.29L1436.7 2133.32C1435.69 2124.5 1434.44 2115.74 1431.34 2107.3C1427.6 2097.15 1425.81 2087.19 1424.52 2076.53C1422.53 2060.2 1421.65 2043.71 1420.88 2027.26L1420.36 2015.89C1417.16 1947.16 1417.27 1878.12 1422.45 1809.47L1422.83 1804.57C1427.96 1739.67 1436.85 1669.56 1476.15 1613.96ZM1276.27 1204.97C1273.82 1204.04 1274.68 1200.59 1277.39 1201.19L1282.33 1202.28C1318.47 1210.34 1353.95 1219.06 1387.69 1234.05C1421.45 1249.05 1450.02 1271.43 1472.73 1298.96C1516.88 1352.47 1535.22 1417.5 1549.7 1482.47C1565.8 1554.66 1580.45 1627.12 1596.68 1699.29L1599.7 1712.73C1614.72 1779.95 1628.9 1847.21 1639.35 1915.22L1640.1 1920.16C1650.64 1990.1 1656.98 2062.46 1645.48 2132.58C1643.2 2146.46 1618.39 2143 1619.36 2129.3C1622.16 2089.67 1624.17 2050.25 1622.23 2010.54C1620.29 1970.82 1616.28 1931.27 1610.31 1891.9C1605.29 1858.76 1597.8 1826.04 1591.18 1793.17L1590.14 1787.98C1584.59 1760.02 1578.87 1732.09 1573.16 1704.15L1564.63 1662.33C1551.84 1599.71 1538.81 1537.03 1524.08 1474.81L1523.21 1471.14C1508.79 1411.28 1487.54 1348.56 1444.31 1301.02C1400.43 1252.78 1337.62 1228.48 1276.27 1204.97ZM1116.85 1839.98C1117.9 1837.8 1121.59 1838.04 1122.73 1839.98C1127.17 1847.62 1127.67 1857.36 1128.51 1865.97L1128.6 1866.86C1129.67 1877.37 1130.61 1887.92 1131.19 1898.47C1132.29 1918.49 1132.82 1938.48 1132.75 1958.52C1132.68 1979.06 1132.23 1999.58 1131.04 2020.09L1130.72 2025.58C1129.63 2043.41 1127.81 2063.29 1118.71 2078.87C1115.4 2084.54 1106.4 2082.87 1104.48 2077.14C1098.2 2058.38 1101.43 2036.14 1103.04 2016.93L1104.29 2001.94C1105.53 1986.95 1106.71 1971.95 1107.65 1956.94C1108.93 1936.41 1109.99 1915.85 1111.01 1895.31C1111.34 1888.64 1111.7 1881.96 1112.07 1875.29L1112.65 1865.28C1113.15 1856.91 1113.11 1847.72 1116.85 1839.98ZM410.851 1866.57L413.631 1864.07C422.164 1856.3 432.947 1844.34 445.561 1845.08C450.591 1845.37 453.796 1849.26 452.753 1853.86C450.525 1863.71 439.733 1868.81 431.965 1874.82C423.455 1881.4 415.434 1888.44 407.429 1895.54C400.327 1901.83 393.497 1908.31 386.83 1914.99L384.338 1917.5C381.949 1919.93 364.933 1934.25 366.773 1937.96L366.873 1938.13C367.385 1938.84 366.532 1939.82 365.683 1939.57C358.335 1937.41 358.793 1931.55 361.571 1925.61C366.909 1914.21 376.257 1903.66 384.419 1893.91C392.56 1884.2 401.371 1875.15 410.851 1866.57V1866.57ZM1143.47 1580.52C1137.79 1568.02 1116.86 1568.28 1104.98 1569.03C1075.05 1570.91 1042.67 1577.96 1016.05 1590.97C988.443 1604.46 969.848 1626.07 953.21 1649.98L952.432 1651.1C936.215 1674.55 920.597 1702.31 895.205 1718.44C882.271 1726.65 867.169 1734.15 851.477 1737.4C850.399 1739.16 848.654 1740.56 846.365 1741.07L845.301 1741.29C840.832 1742.21 833.889 1743.23 827.891 1742.62C827.931 1745.35 827.9 1748.06 827.974 1750.64C828.185 1758.05 828.275 1765.5 828.275 1772.91C828.279 1788.45 827.381 1804.02 828.078 1819.55C828.696 1833.29 830.782 1847.65 837.874 1859.94C843.075 1868.95 849.941 1874.91 858.228 1880.61C878.615 1869.05 901.667 1862 925.064 1856.7C953.359 1850.3 982.331 1846.02 1009.98 1837.33C1023.29 1833.15 1036.09 1827.68 1047.68 1820.25C1059.98 1812.35 1069.38 1801.67 1079.05 1791.23L1080.56 1789.6C1090.43 1779.08 1101.2 1769 1115.14 1763.29C1127.15 1758.37 1142.98 1757.5 1153.48 1749.89C1158.97 1745.91 1159.43 1740.13 1160.01 1734.22C1153.29 1735.11 1146.17 1733.68 1139.46 1732.95L1135.99 1732.57C1129.65 1731.87 1123.46 1731.1 1117.22 1729.6C1116.06 1729.32 1116.06 1727.69 1117.22 1727.41C1124.59 1725.64 1131.9 1724.89 1139.46 1724.06L1141.24 1723.86C1148.08 1723.02 1155.27 1721.76 1161.98 1723.16C1163.18 1718.9 1164.92 1714.83 1167.36 1710.76C1170.78 1705.03 1177.26 1698.54 1178.14 1691.86C1178.4 1689.86 1177.9 1687.51 1176.88 1685.74L1176.54 1685.14C1176.11 1684.43 1175.61 1683.71 1174.87 1683.27C1174.79 1683.36 1174.62 1683.46 1174.24 1683.57C1169.08 1685.08 1164.57 1682.73 1162.18 1679.11C1152.03 1680.28 1140.96 1679.89 1131.44 1680.28L1121.82 1680.71C1111.54 1681.15 1100.79 1681.34 1091.13 1679.41C1089.78 1679.14 1089.37 1677.05 1090.72 1676.51C1102.6 1671.79 1117.01 1670.28 1129.72 1668.46C1136.83 1667.45 1143.98 1666.67 1151.1 1665.78C1155.85 1665.19 1160.88 1664.2 1165.79 1663.97C1178.11 1649.7 1171.48 1627.19 1154.33 1621.04C1148.08 1623.6 1142.47 1622.11 1135.64 1621.57C1128.83 1621.02 1122 1620.65 1115.16 1620.68C1101.46 1620.74 1086.93 1624.09 1073.36 1622.65C1071.16 1622.41 1069.1 1619.68 1071.3 1618.01C1081.69 1610.12 1096.58 1607.55 1109.76 1605.87L1112.5 1605.53C1116.92 1604.99 1122.29 1604.2 1127.87 1603.74C1129.13 1601.45 1131.39 1599.72 1134.79 1599.29C1135.8 1599.16 1136.82 1599.08 1137.83 1599L1137.82 1598.91V1598.91C1146.11 1598.54 1145.75 1585.51 1143.47 1580.52ZM575.994 1824.2C575.848 1824.41 575.687 1824.61 575.517 1824.8L575.254 1825.09L576.617 1824.57L575.994 1824.2V1824.2ZM1288.12 1552.6C1253.23 1549.11 1218.29 1549.85 1183.3 1550.78C1180.5 1559.3 1170.76 1566.56 1161.32 1566.83C1168.71 1577.3 1169.47 1591.47 1164.29 1602.57C1175.3 1606.64 1184.78 1613.97 1190.53 1624.39C1198.52 1638.85 1197.47 1654.94 1189.58 1668.3C1196.32 1673.97 1200.29 1683.18 1199.89 1691.86C1199.45 1701.54 1193.25 1709.81 1188.09 1717.82C1182.53 1726.49 1182.34 1734.12 1180.63 1743.83C1178.12 1758.03 1167.83 1766.65 1154.57 1772.03L1155.28 1774.61C1158.7 1786.98 1162.95 1800.03 1172.71 1809.08C1185.27 1820.72 1204.76 1820.61 1221.36 1821.35L1222.16 1821.39C1237.35 1822.09 1252.54 1822.92 1267.73 1823.72L1279.13 1824.32C1296.62 1825.21 1313.42 1825.32 1327.7 1814.56C1351.01 1797 1366.99 1767.94 1377.11 1742.21C1398.34 1688.21 1398.59 1628.95 1388.85 1572.71C1356.16 1562.91 1322.25 1556.01 1288.12 1552.6ZM997.971 1642.19L998.228 1642.2C1005.41 1642.97 1010.35 1648.38 1012.1 1654.8C1014.66 1664.13 1013.4 1672.56 1019.55 1680.99C1025.87 1689.65 1029.75 1696.58 1030.67 1707.28C1031.05 1711.69 1030.87 1716.08 1031.93 1720.39L1032.69 1723.41C1033.5 1726.63 1034.17 1729.73 1033.76 1733.18C1033.39 1736.34 1031.74 1738.79 1028.34 1739.8C1017.27 1743.1 1008.72 1735.51 1005.86 1725.9C1003.38 1717.61 1006.68 1707.73 1003.2 1699.94C1001.27 1695.62 997.702 1692.01 995.689 1687.66C993.694 1683.35 992.693 1678.85 992.373 1674.17C991.766 1665.31 1000.19 1654.67 995.488 1646.64C994.488 1644.93 995.621 1642.14 997.971 1642.19ZM850.851 1550.78C858.351 1549.37 866.86 1546.12 874.257 1548.82C878.059 1550.21 879.937 1554.52 876.725 1557.52C871.148 1562.72 863.042 1563.01 855.531 1564.24L854.869 1564.35C845.987 1565.88 837.089 1567.33 828.179 1568.7C811.416 1571.28 794.613 1573.57 777.752 1575.51C760.434 1577.5 743.067 1579.28 725.676 1580.61L718.943 1581.13C704.253 1582.22 688.967 1583.04 674.553 1580.95C672.458 1580.65 672.796 1577.81 674.553 1577.31C690.344 1572.86 707.666 1571.67 723.991 1569.79C741.347 1567.79 758.674 1565.67 775.956 1563.16C793.211 1560.65 810.442 1557.96 827.61 1554.99C835.37 1553.65 843.117 1552.25 850.851 1550.78ZM1121.48 1536.51C1114.9 1534.34 1107.66 1531.13 1100.52 1532.2C1088.23 1534.06 1077.28 1545.2 1067.55 1552.55L1072.43 1551.66C1097.44 1547.19 1130.57 1542.37 1151.56 1557.17C1151.61 1557.08 1151.66 1557 1151.72 1556.91C1153.41 1554.52 1155.38 1552.65 1157.52 1550.6C1157.72 1550.42 1157.92 1550.23 1158.12 1550.04L1159.27 1548.9L1156.63 1548.05C1150.96 1546.18 1144.25 1543.78 1143.19 1543.43L1143.12 1543.4C1135.9 1541.13 1128.67 1538.88 1121.48 1536.51ZM915.981 1048.78C914.952 1036.47 935.555 1036.57 936.576 1048.78C938.802 1075.45 932.352 1101.86 918.469 1125.24C918.367 1125.41 918.254 1125.56 918.147 1125.72C926.83 1129.92 935.612 1133.96 944.59 1137.56C956.073 1142.17 967.773 1146.37 979.683 1149.94C990.456 1153.16 1003.73 1154.43 1012.79 1161.15C1031.88 1175.29 1024.71 1204.66 1021.03 1223.69L1020.46 1226.69C1018.63 1236.49 1017.31 1246.54 1021.75 1255.94C1026.49 1265.98 1036.07 1273.42 1044.62 1280.61L1046.35 1282.06C1053.92 1288.48 1062.58 1296.28 1068.13 1304.99C1073.21 1295.23 1080.12 1287.26 1087.43 1278.29C1092.64 1271.88 1088.93 1269.77 1085.19 1263.51C1081.58 1257.49 1079.82 1251.07 1080.95 1244.2C1083.03 1231.51 1093.93 1222.35 1104.78 1215.46C1117.59 1207.33 1131.89 1201.31 1145.13 1193.75C1172.35 1178.21 1198.85 1160.45 1222.73 1140.72C1223.39 1140.18 1224.53 1140.89 1224.01 1141.64C1205.14 1168.33 1183.02 1191.4 1155.84 1210.97C1144.82 1218.91 1133.24 1225.5 1121.58 1232.42L1118.23 1234.42C1113.55 1237.24 1107.71 1241.01 1105.6 1245.81C1103.47 1250.64 1108.01 1254.29 1110.45 1258.29C1118.22 1270.99 1114.47 1282.85 1105.27 1293.62L1104.84 1294.12C1095.7 1304.6 1088.77 1314.35 1085.45 1327.74C1078.33 1356.51 1088.25 1386.48 1098.63 1413.49L1099.04 1414.55C1104.66 1429.11 1110.63 1443.56 1115.51 1458.35L1116.85 1462.44C1121.27 1476.05 1124.89 1489.47 1119.93 1503.46C1118.25 1508.22 1111.27 1509.34 1108.37 1504.86C1098.15 1489.07 1095.61 1470.07 1089.2 1452.7C1082.95 1435.78 1075.78 1419.16 1069.75 1402.17C1061.99 1380.29 1056.79 1356.74 1059.61 1333.79C1059.53 1333.66 1059.43 1333.53 1059.37 1333.39L1057.39 1329.37C1052 1318.48 1046.79 1308.96 1036.99 1300.28C1026.76 1291.22 1015.66 1283.2 1007.61 1272.23C990.135 1248.42 1000.94 1221.92 1003.06 1195.87L1003.3 1192.68C1003.68 1187.27 1003.89 1179.92 1000.09 1176.18C995.823 1171.97 985.808 1170.89 980.141 1169.03C965.497 1164.21 951.066 1158.59 937.321 1151.84C924.237 1145.42 911.563 1138.33 899.763 1130.02L893.782 1125.83C884.345 1119.21 874.56 1111.97 868.235 1102.96C867.505 1101.92 868.745 1100.24 870.067 1100.74C880.625 1104.73 890.272 1111.07 900.15 1116.58C900.304 1116.25 900.483 1115.91 900.685 1115.57C912.907 1094.99 917.934 1072.19 915.981 1048.78ZM1253.25 1189.78C1257.46 1179.05 1276.63 1179.87 1275.87 1192.63C1275.28 1202.42 1270.81 1211.27 1266.72 1220.16L1266.29 1221.11C1262.07 1230.38 1257.19 1239.08 1251.36 1247.58C1240.22 1263.81 1227.16 1278.88 1213.22 1293.1C1200.58 1306 1183.98 1313.88 1164.87 1312.57C1156.81 1312.02 1148.68 1310.11 1141.62 1306.37C1133.24 1301.92 1124.13 1288.57 1113.43 1291.8C1112.4 1292.11 1111.43 1290.7 1112.33 1290.03C1124.68 1280.78 1138.69 1295.13 1150.52 1298.58C1168.33 1303.79 1186.61 1298.03 1198.08 1284.64C1210.05 1270.65 1221.07 1254.98 1231.13 1239.75C1236.24 1232.02 1240.9 1223.99 1244.93 1215.72C1248.99 1207.37 1249.92 1198.29 1253.25 1189.78ZM1224.54 1123.73C1224.02 1122.25 1226 1120.84 1227.4 1121.68C1235.51 1126.6 1242.54 1133.09 1250.03 1138.78C1258.33 1145.1 1266.7 1151.29 1275.19 1157.38C1287.58 1166.26 1273.21 1182.61 1262.31 1172.91C1247.4 1159.63 1231.06 1142.28 1224.54 1123.73ZM1179.99 1071.78C1183.28 1059.96 1202.78 1064.83 1199.94 1076.52L1199.85 1076.88C1194.47 1096.18 1202.13 1115.84 1218.49 1128.35L1219.09 1128.81C1229.45 1136.52 1214.78 1149.99 1204.53 1142.36C1182.16 1125.7 1172.85 1097.4 1179.99 1071.78Z" fill="black"/>
<path fill-rule="evenodd" clip-rule="evenodd" d="M1062.14 410.779C1160.36 410.779 1287.14 468.098 1297.95 526.803C1310.69 595.985 1378.91 861.445 1363.5 946.574C1348.1 1031.7 1265.08 1092.98 1132.24 1092.98C999.397 1092.98 900.244 1025.59 877.478 1002.45C854.712 979.304 812.521 896.683 812.521 896.683C812.521 896.683 741.395 887.882 741.058 833.942C740.72 780.001 787.301 760.376 787.301 760.376C787.301 760.376 770.693 547.504 812.521 492.082C854.35 436.661 963.923 410.779 1062.14 410.779Z" fill="white"/>
<path fill-rule="evenodd" clip-rule="evenodd" d="M1291.94 517.33C1291.87 516.093 1293.8 515.948 1294.17 517.042C1315.36 582.169 1328.42 632.923 1342.17 699.693L1346.23 719.335C1357.08 771.721 1368.04 824.184 1377.3 876.825L1377.84 879.968C1382.48 907.216 1385.15 934.73 1379.34 962.035C1373.91 987.558 1359.07 1010.96 1339.8 1029.59C1302.56 1065.61 1250.8 1088.11 1198.74 1098.16C1172.41 1103.25 1145.25 1105.21 1118.42 1103.44C1105.05 1102.57 1091.7 1100.82 1078.61 1098.23L1077.16 1097.94C1063.96 1095.29 1052.25 1092.13 1045.24 1080.57C1043.47 1077.66 1044.18 1072.67 1047.89 1071.18C1054.87 1068.37 1060.01 1067.2 1067.64 1068.01C1074.92 1068.78 1082.03 1070.82 1089.23 1072.09C1102.98 1074.52 1116.95 1075.74 1130.95 1076.04C1158.43 1076.6 1185.99 1073.4 1212.26 1065.77C1257.41 1052.65 1303.28 1027.56 1329.66 990.037C1360.69 945.89 1348.34 892.311 1340.11 843.557L1339.87 842.081C1331.54 792.248 1323.31 742.415 1315.32 692.55L1311.91 671.177C1302.96 614.708 1294.5 574.396 1291.94 517.33ZM833.569 379.112C856.101 365.295 884.101 361.9 910.566 362.09L913.88 362.129C947.768 362.61 1118.35 366.387 1175.46 367.549L1189.05 367.815C1207.03 368.131 1243.3 368.46 1261.99 368.778L1263.07 368.797C1272.23 368.957 1281.4 369.022 1290.57 369.295L1291.91 369.34C1298.78 369.613 1304.5 370.569 1309.87 375.073C1312.61 377.355 1313.68 380.836 1313.43 384.152L1313.39 384.583L1327 385.694C1336.24 386.454 1341.13 394.167 1337.46 401.972L1337.27 402.35C1330.75 415.288 1325.77 452.945 1322.28 466.865C1320.44 474.187 1318.97 481.622 1318.11 489.105C1317.42 494.997 1317.35 500.901 1313.82 506.083C1306.29 517.138 1285.12 517.042 1284.74 501.384C1284.72 500.885 1284.74 500.402 1284.79 499.935C1231.52 497.763 1158.78 497.972 1105.57 500.933C1055.88 503.701 1006.41 509.977 957.713 519.584C945.38 522.014 933.082 524.67 920.869 527.55C910.854 529.9 898.556 531.3 889.596 536.337C879.563 542.002 879.753 552.156 880.843 561.828C882.013 572.079 883.963 566.797 886.727 576.139L886.897 576.729C889.751 586.868 893.28 596.893 897.95 606.42C900.614 611.86 904.906 617.09 903.278 623.35C902.361 626.874 899.367 630.64 896.618 633.102C884.093 644.286 862.923 637.157 854.412 652.477C845.506 668.497 845.285 690.198 844.529 707.925L844.484 708.963C843.932 721.177 844.086 733.423 844.951 745.605C845.729 756.708 848.91 767.701 844.829 778.37C841.853 786.127 832.133 786.851 827.048 780.543C826.464 779.818 825.929 779.076 825.428 778.329L824.937 777.582L824.904 777.598C825.387 778.306 825.837 779.031 826.269 779.77C826.736 780.591 825.577 781.492 824.868 780.784C812.898 768.666 795.41 771.08 781.866 779.561C768.149 788.187 762.735 804.569 762.026 819.263C761.23 835.562 762.787 854.667 770.087 869.728C773.166 876.101 777.558 881.958 784.842 884.388C788.147 885.483 791.294 885.338 794.736 885.595C798.315 885.851 802.623 887.526 806.099 887.301C810.617 887.002 814.673 891.8 813.39 895.821L813.296 896.088C813.229 896.281 813.158 896.474 813.09 896.651C813.261 896.796 813.434 896.973 813.556 897.23C826.702 922.222 844.726 944.462 864.652 965.093C874.635 975.408 885.704 984.887 897.276 993.657C902.984 997.986 909.003 1002.32 915.352 1005.81C917.462 1006.95 919.397 1007.72 921.771 1008.35C922.876 1008.64 924.139 1008.78 925.211 1009.12L926.325 1009.48C926.401 1009.5 926.474 1009.52 926.543 1009.54C929.726 1009.88 932.407 1011.84 933.462 1014.92C936.212 1022.93 931.213 1030.01 922.668 1032.22C913.411 1034.62 904.686 1030.39 897.348 1025.54L896.86 1025.21C881.898 1015.19 868.112 1003.94 856.177 990.809C832.566 964.884 817.774 934.871 810.928 901.672C809.231 905.067 806.948 908.028 802.987 910.088C796.829 913.307 789.477 913.307 782.731 912.229C769.153 910.088 757.581 902.38 749.849 891.952C741.821 881.138 738.83 868.006 737.014 855.212C735.215 842.401 734.333 829.545 736.132 816.703C738.711 798.261 747.029 780.028 763.202 769.921C751.094 745.38 748.967 717.862 749.831 690.987C750.887 657.901 757.027 624.444 761.749 591.663L775.174 498.471V498.471L775.723 494.714C778.963 472.79 782.907 450.751 791.726 430.093C800.427 409.736 813.642 391.326 833.569 379.112ZM777.076 819.985C799.251 809.976 823.208 819.197 835.144 838.621C845.521 855.508 814.666 866.67 809.518 849.263L809.37 848.727C805.98 835.547 792.175 824.153 777.768 822.383C776.574 822.224 775.69 820.614 777.076 819.985Z" fill="black"/>
<path fill-rule="evenodd" clip-rule="evenodd" d="M1172.06 976.704C1160.43 972.291 1150.05 964.929 1142.47 955.526C1139.83 952.256 1139.15 948.804 1139.7 945.647C1140.32 942.097 1142.58 938.879 1145.66 936.72C1148.75 934.555 1152.61 933.488 1156.35 934.032C1159.59 934.505 1162.82 936.158 1165.38 939.587L1165.91 940.273C1170.42 945.948 1176.3 950.605 1183 953.607C1189.45 956.5 1196.67 957.85 1204.14 957.065C1218.36 955.57 1228.17 948.413 1238.59 938.693C1239.88 937.466 1241.17 936.201 1242.47 934.915C1243.29 933.749 1244.43 933 1245.69 932.607C1247.1 932.17 1248.68 932.195 1250.14 932.667C1251.54 933.122 1252.79 933.985 1253.63 935.133C1254.43 936.225 1254.89 937.573 1254.74 939.124C1253.79 949.196 1248.12 958.186 1240.08 965.244C1231.15 973.084 1219.32 978.507 1208.17 980.409C1195.9 982.505 1183.39 981.003 1172.06 976.704V976.704ZM1213.97 821.314C1227.03 828.701 1246.93 845.925 1232.88 864.237C1216.34 880.384 1192.52 861.871 1180.79 853.498C1169.91 847.009 1157.68 863.698 1167.78 871.275C1252.58 929.684 1286.99 823.246 1220.57 812.63C1213.26 811.46 1210.54 819.029 1213.97 821.314ZM1062 753.37C1063.45 736.704 1090.73 732.92 1093.44 749.411C1095.88 764.184 1093.01 777.755 1085.86 791.056C1079.03 803.763 1061.85 797.834 1060.55 786.264C1058.81 770.754 1061.11 763.737 1062 753.37ZM1269.69 745.992C1273.49 741.357 1278.98 738.193 1285.56 739.981C1306.12 745.57 1300.06 772.723 1292.84 785.94C1288.92 793.118 1276.24 794.938 1270.51 788.618C1261.16 778.312 1256.69 757.731 1268.57 747.58C1268.89 747.056 1269.25 746.526 1269.69 745.992ZM1085.57 680.445L1088.82 679.916C1098.87 678.3 1111.36 676.747 1118.46 684.261C1122.23 688.245 1123.53 695.651 1118.46 699.465C1109.55 706.175 1099.7 703.575 1089.02 704.143C1080.22 704.613 1071.76 705.968 1063.28 708.222C1044.68 713.168 1029.53 722.196 1013.65 732.109C1011.56 733.409 1009.43 730.929 1010.43 729.116C1019.6 712.407 1037.37 698.681 1055.17 690.315C1064.67 685.849 1075.06 682.144 1085.57 680.445ZM1250.94 672.96L1253.43 673.433C1280.48 678.693 1315.62 689.201 1328.43 713.918C1328.92 717.413 1328.4 718.162 1327.98 718.652L1327.84 718.815C1327.5 719.233 1327.22 719.809 1325.59 720.284C1325.14 720.184 1324.69 720.078 1324.22 719.966C1318.35 718.534 1313.71 716.562 1309.21 714.516L1304.33 712.281C1298.68 709.7 1292.97 707.214 1286.92 705.378C1274.01 701.461 1260.74 698.702 1247.26 697.228C1244.33 696.909 1241.52 695.992 1239.3 694.419C1237.19 692.927 1235.58 690.86 1234.85 688.113C1233.9 684.558 1234.17 681.867 1236.22 678.66C1237.76 676.251 1239.97 674.582 1242.5 673.623C1245.08 672.646 1248.02 672.416 1250.94 672.96Z" fill="black"/>
<path fill-rule="evenodd" clip-rule="evenodd" d="M1215.87 884.013C1196.63 875.952 1162.09 882.986 1149.55 885.783C1120.39 892.287 1091.06 906.344 1082 928.367C1071.78 953.187 1092.16 961 1095.16 959.724C1115.35 961.046 1139.38 949.243 1160.53 946.196C1177.7 943.702 1195.81 941.524 1211.9 933.037C1223.64 939.048 1250.17 942.297 1271.58 947.553C1289.81 952.027 1297.71 961.729 1314.62 959.666C1334.88 957.194 1326.58 917.553 1304 901.494C1279.29 883.919 1237.5 876.792 1215.87 884.013ZM1253.96 1053.51C1237.13 1057.33 1236 1023.01 1234.11 1010.88C1232.64 1001.41 1224.33 976.985 1203.27 978.039C1182.21 979.093 1174.29 999.559 1175.36 1012.29C1176.05 1020.54 1184.23 1062.35 1158.13 1067.64C1141.49 1067.59 1122.24 1066.54 1104.75 1063.54C1084.16 1059.2 1057.38 1044.01 1050.31 1073.93C1047.77 1084.69 1138.47 1116.68 1178.72 1119.58C1219.54 1127.27 1267.3 1115.44 1296.36 1086.39C1302.97 1079.78 1321.59 1052.34 1322.92 1045.62C1325.71 1031.5 1319.25 1022.41 1300.47 1027.39C1287.2 1033.98 1264.78 1051.05 1253.96 1053.51Z" fill="black"/>
<path fill-rule="evenodd" clip-rule="evenodd" d="M1368.77 831.117C1347.77 851.305 1312.71 857.098 1284.77 846.271C1213.03 818.384 1248.14 731.404 1303.47 708.045C1310.39 706.442 1319.62 702.64 1328.04 701.777C1328.8 701.429 1330.45 702.435 1332.46 701.484C1393.47 707.821 1407.37 795.932 1368.77 831.117M1137.37 836.284C1113.82 865.349 1070.03 874.316 1034.25 860.805C963.566 834.908 988.635 757.778 1036.99 727.54C1139.15 691.829 1181.33 782.694 1137.37 836.284M984.148 771.885C984.083 771.856 984.017 771.841 983.949 771.812C984.323 771.659 984.697 771.506 985.069 771.35C984.948 771.645 984.816 771.936 984.698 772.231C984.515 772.113 984.354 771.976 984.148 771.885M1417.4 740.467C1411.63 740.478 1403.3 741.36 1398.53 745.082C1386.76 708.145 1343.3 673.959 1305.51 698.887C1275.75 707.791 1253.66 727.538 1241.11 753.792C1218.48 741.268 1182.9 746.616 1163.27 763.177C1150.42 723.668 1118.79 709.833 1081.14 707.791C1040.05 701.529 999.095 738.657 986.316 768.441C975.69 767.316 959.812 764.17 949.816 770.271C884.938 754.442 771.51 745.715 758.32 754.509C748.921 757.865 743.763 778.505 756.892 779.619C768.332 778.108 755.556 764.495 767.088 763.01C828.534 759.466 888.185 770.979 948.981 775.81C954.409 782.602 971.947 784.875 981.303 782.145C966.567 832.67 998.377 867.044 1046.04 877.34C1119.84 893.112 1184.05 831.69 1164.76 767.802C1187.11 757.454 1212.83 757.899 1237.18 763.349C1196.49 902.695 1437.71 896.443 1400.04 749.857C1425.11 761.46 1430.55 742.809 1417.4 740.467" fill="black"/>
</svg>
